<svg width="32" height="32" viewBox="0 0 32 32" fill="none" xmlns="http://www.w3.org/2000/svg">
<g clip-path="url(#clip0_49_21)">
<path d="M16 31C7.73125 31 1 24.2687 1 16C1 7.73125 7.73125 1 16 1C24.2687 1 31 7.73125 31 16C31 24.2687 24.2687 31 16 31ZM28.65 18.0525C28.2125 17.915 24.6875 16.8613 20.67 17.505C22.345 22.11 23.0288 25.86 23.16 26.64C26.035 24.6962 28.08 21.615 28.6537 18.0525H28.65ZM21.0062 27.8125C20.815 26.6875 20.0687 22.7725 18.2687 18.1L18.1862 18.125C10.9487 20.6437 8.36125 25.6563 8.13625 26.125C10.2988 27.8225 13.0362 28.8325 15.9987 28.8325C17.7737 28.8325 19.4612 28.47 20.9987 27.815L21.0062 27.8125ZM6.48125 24.5875C6.77125 24.0875 10.2875 18.2687 16.8963 16.1312C17.065 16.075 17.2337 16.0262 17.4025 15.9812C17.0775 15.25 16.7275 14.5225 16.3625 13.8062C9.9625 15.7187 3.7575 15.6375 3.195 15.625L3.19 16.015C3.19 19.3062 4.4375 22.3113 6.4825 24.5838L6.48125 24.5875ZM3.45625 13.3937C4.03125 13.4037 9.31 13.4262 15.3025 11.8337C13.18 8.06125 10.89 4.88625 10.5525 4.42375C6.9675 6.11125 4.29 9.41125 3.4575 13.3863L3.45625 13.3937ZM13 3.565C13.3525 4.04 15.6812 7.2075 17.7775 11.065C22.3337 9.35875 24.265 6.765 24.4938 6.4375C22.2313 4.425 19.2563 3.205 16 3.205C14.9688 3.205 13.9625 3.33 13 3.56125V3.565ZM25.9187 7.91875C25.6462 8.28125 23.5 11.035 18.7638 12.9687C19.0638 13.5812 19.3512 14.2 19.6137 14.8262C19.7137 15.0512 19.8013 15.2762 19.8888 15.4887C24.1513 14.9512 28.3887 15.8137 28.8137 15.9012C28.7887 12.8762 27.7137 10.1012 25.9262 7.92625L25.9187 7.91875Z" fill="black" stroke="black" stroke-width="0.5"/>
</g>
<defs>
<clipPath id="clip0_49_21">
<rect width="32" height="32" fill="white"/>
</clipPath>
</defs>
</svg>
