<svg width="28" height="28" viewBox="0 0 28 28" fill="none" xmlns="http://www.w3.org/2000/svg">
<path d="M1.90703 5C1.41503 5 1 5.42603 1 5.93108V22.0689C1 22.574 1.41502 23 1.90703 23H26.093C26.585 23 27 22.574 27 22.0689V5.93108C27 5.42604 26.585 5 26.093 5H1.90703ZM3.11622 6.24126H24.8836L13.9999 16.5701L3.11622 6.24126V6.24126ZM2.20919 7.05586L9.19072 13.6894L2.20919 20.8561V7.05586ZM25.7905 7.05586V20.8561L18.809 13.6894L25.7905 7.05586ZM10.0793 14.5235L13.594 17.8694V17.8696C13.8245 18.0841 14.1758 18.0841 14.4063 17.8696L17.9209 14.5237L24.9689 21.7586H3.03146L10.0794 14.5237L10.0793 14.5235Z" fill="black" stroke="black" stroke-width="1.25" stroke-linejoin="round"/>
</svg>
