<svg width="32" height="32" viewBox="0 0 32 32" fill="none" xmlns="http://www.w3.org/2000/svg">
<path d="M20.2117 16C20.2117 18.3217 18.3217 20.2117 16 20.2117C13.6783 20.2117 11.7883 18.3217 11.7883 16C11.7883 13.6783 13.6783 11.7883 16 11.7883C18.3217 11.7883 20.2117 13.6783 20.2117 16ZM16 2C8.28017 2 2 8.28017 2 16C2 23.7198 8.28017 30 16 30C18.828 30 21.5545 29.1577 23.8867 27.5652L23.9263 27.5372L22.0398 25.345L22.0083 25.3648C20.217 26.5189 18.1309 27.1318 16 27.13C9.86333 27.13 4.87 22.1367 4.87 16C4.87 9.86333 9.86333 4.87 16 4.87C22.1367 4.87 27.13 9.86333 27.13 16C27.1284 16.8043 27.0404 17.6061 26.8675 18.3917C26.5163 19.8372 25.5037 20.2793 24.7442 20.221C23.9812 20.1592 23.0875 19.6143 23.0805 18.2832V16C23.0786 14.1226 22.3321 12.3226 21.0047 10.995C19.6773 9.66733 17.8774 8.92049 16 8.91833C14.1224 8.92019 12.3222 9.66688 10.9946 10.9946C9.66688 12.3222 8.92019 14.1224 8.91833 16C8.92019 17.8776 9.66688 19.6778 10.9946 21.0054C12.3222 22.3331 14.1224 23.0798 16 23.0817C16.9332 23.0839 17.8574 22.9002 18.7188 22.5413C19.5801 22.1823 20.3613 21.6553 21.0167 20.991C21.4309 21.6415 22.0037 22.176 22.6812 22.5444C23.3588 22.9127 24.1188 23.1028 24.89 23.0968C25.9097 23.0968 26.92 22.7562 27.7332 22.139C28.572 21.5008 29.1985 20.5803 29.545 19.4732C29.5998 19.2935 29.7025 18.8852 29.7025 18.8817L29.7048 18.8665C29.909 17.9798 30 17.0932 30 16C30 8.28017 23.7198 2 16 2" fill="black"/>
<path d="M16 2C8.28017 2 2 8.28017 2 16C2 23.7198 8.28017 30 16 30C18.828 30 21.5545 29.1577 23.8867 27.5652L23.9263 27.5372L22.0398 25.345L22.0083 25.3648C20.217 26.5189 18.1309 27.1318 16 27.13C9.86333 27.13 4.87 22.1367 4.87 16C4.87 9.86333 9.86333 4.87 16 4.87C22.1367 4.87 27.13 9.86333 27.13 16C27.1284 16.8043 27.0404 17.6061 26.8675 18.3917C26.5163 19.8372 25.5037 20.2793 24.7442 20.221C23.9812 20.1592 23.0875 19.6143 23.0805 18.2832V16C23.0786 14.1226 22.3321 12.3226 21.0047 10.995C19.6773 9.66733 17.8774 8.92049 16 8.91833C14.1224 8.92019 12.3222 9.66688 10.9946 10.9946C9.66688 12.3222 8.92019 14.1224 8.91833 16C8.92019 17.8776 9.66688 19.6778 10.9946 21.0054C12.3222 22.3331 14.1224 23.0798 16 23.0817C16.9332 23.0839 17.8574 22.9002 18.7188 22.5413C19.5801 22.1823 20.3613 21.6553 21.0167 20.991C21.4309 21.6415 22.0037 22.176 22.6812 22.5444C23.3588 22.9127 24.1188 23.1028 24.89 23.0968C25.9097 23.0968 26.92 22.7562 27.7332 22.139C28.572 21.5008 29.1985 20.5803 29.545 19.4732C29.5998 19.2935 29.7025 18.8852 29.7025 18.8817L29.7048 18.8665C29.909 17.9798 30 17.0932 30 16C30 8.28017 23.7198 2 16 2M20.2117 16C20.2117 18.3217 18.3217 20.2117 16 20.2117C13.6783 20.2117 11.7883 18.3217 11.7883 16C11.7883 13.6783 13.6783 11.7883 16 11.7883C18.3217 11.7883 20.2117 13.6783 20.2117 16Z" stroke="black" stroke-width="0.5" stroke-linecap="round" stroke-linejoin="round"/>
</svg>
