<svg width="28" height="28" viewBox="0 0 28 28" fill="none" xmlns="http://www.w3.org/2000/svg">
<path d="M17.61 14C17.61 15.99 15.99 17.61 14 17.61C12.01 17.61 10.39 15.99 10.39 14C10.39 12.01 12.01 10.39 14 10.39C15.99 10.39 17.61 12.01 17.61 14ZM14 2C7.383 2 2 7.383 2 14C2 20.617 7.383 26 14 26C16.424 26 18.761 25.278 20.76 23.913L20.794 23.889L19.177 22.01L19.15 22.027C17.6146 23.0162 15.8265 23.5415 14 23.54C8.74 23.54 4.46 19.26 4.46 14C4.46 8.74 8.74 4.46 14 4.46C19.26 4.46 23.54 8.74 23.54 14C23.5386 14.6894 23.4632 15.3767 23.315 16.05C23.014 17.289 22.146 17.668 21.495 17.618C20.841 17.565 20.075 17.098 20.069 15.957V14C20.0674 12.3908 19.4275 10.8479 18.2897 9.70997C17.152 8.572 15.6092 7.93185 14 7.93C12.3906 7.93159 10.8476 8.57161 9.70962 9.70962C8.57161 10.8476 7.93159 12.3906 7.93 14C7.93159 15.6094 8.57161 17.1524 9.70962 18.2904C10.8476 19.4284 12.3906 20.0684 14 20.07C14.7998 20.0719 15.5921 19.9145 16.3304 19.6068C17.0687 19.2991 17.7382 18.8474 18.3 18.278C18.6551 18.8356 19.146 19.2937 19.7268 19.6095C20.3075 19.9252 20.959 20.0882 21.62 20.083C22.494 20.083 23.36 19.791 24.057 19.262C24.776 18.715 25.313 17.926 25.61 16.977C25.657 16.823 25.745 16.473 25.745 16.47L25.747 16.457C25.922 15.697 26 14.937 26 14C26 7.383 20.617 2 14 2" fill="black"/>
<path d="M14 2C7.383 2 2 7.383 2 14C2 20.617 7.383 26 14 26C16.424 26 18.761 25.278 20.76 23.913L20.794 23.889L19.177 22.01L19.15 22.027C17.6146 23.0162 15.8265 23.5415 14 23.54C8.74 23.54 4.46 19.26 4.46 14C4.46 8.74 8.74 4.46 14 4.46C19.26 4.46 23.54 8.74 23.54 14C23.5386 14.6894 23.4632 15.3767 23.315 16.05C23.014 17.289 22.146 17.668 21.495 17.618C20.841 17.565 20.075 17.098 20.069 15.957V14C20.0674 12.3908 19.4275 10.8479 18.2897 9.70997C17.152 8.572 15.6092 7.93185 14 7.93C12.3906 7.93159 10.8476 8.57161 9.70962 9.70962C8.57161 10.8476 7.93159 12.3906 7.93 14C7.93159 15.6094 8.57161 17.1524 9.70962 18.2904C10.8476 19.4284 12.3906 20.0684 14 20.07C14.7998 20.0719 15.5921 19.9145 16.3304 19.6068C17.0687 19.2991 17.7382 18.8474 18.3 18.278C18.6551 18.8356 19.146 19.2937 19.7268 19.6095C20.3075 19.9252 20.959 20.0882 21.62 20.083C22.494 20.083 23.36 19.791 24.057 19.262C24.776 18.715 25.313 17.926 25.61 16.977C25.657 16.823 25.745 16.473 25.745 16.47L25.747 16.457C25.922 15.697 26 14.937 26 14C26 7.383 20.617 2 14 2M17.61 14C17.61 15.99 15.99 17.61 14 17.61C12.01 17.61 10.39 15.99 10.39 14C10.39 12.01 12.01 10.39 14 10.39C15.99 10.39 17.61 12.01 17.61 14Z" stroke="black"/>
</svg>
