<svg width="32" height="32" viewBox="0 0 32 32" fill="none" xmlns="http://www.w3.org/2000/svg">
<path fill-rule="evenodd" clip-rule="evenodd" d="M15.9553 1C7.68541 1 1 7.64583 1 15.8676C1 22.4398 5.28357 28.0029 11.226 29.9719C11.969 30.1199 12.2411 29.652 12.2411 29.2584C12.2411 28.9137 12.2166 27.7323 12.2166 26.5013C8.05643 27.3876 7.1901 24.7289 7.1901 24.7289C6.52153 23.0059 5.53092 22.563 5.53092 22.563C4.16929 21.6522 5.6301 21.6522 5.6301 21.6522C7.14051 21.7507 7.93306 23.1784 7.93306 23.1784C9.2699 25.4428 11.4241 24.803 12.2907 24.409C12.4144 23.449 12.8108 22.7844 13.2317 22.4153C9.91367 22.0706 6.42265 20.7907 6.42265 15.0798C6.42265 13.4552 7.01653 12.126 7.95755 11.0923C7.80908 10.7232 7.28898 9.19673 8.10633 7.15374C8.10633 7.15374 9.36908 6.75982 12.2163 8.67986C13.4353 8.35442 14.6925 8.18886 15.9553 8.18747C17.2181 8.18747 18.5053 8.35996 19.694 8.67986C22.5415 6.75982 23.8043 7.15374 23.8043 7.15374C24.6216 9.19673 24.1012 10.7232 23.9528 11.0923C24.9186 12.126 25.488 13.4552 25.488 15.0798C25.488 20.7907 21.9969 22.0458 18.6541 22.4153C19.199 22.8829 19.6692 23.7689 19.6692 25.1721C19.6692 27.1659 19.6447 28.766 19.6447 29.2581C19.6447 29.652 19.9171 30.1199 20.6598 29.9722C26.6022 28.0026 30.8858 22.4398 30.8858 15.8676C30.9103 7.64583 24.2004 1 15.9553 1Z" fill="black"/>
</svg>
