<svg width="32" height="32" viewBox="0 0 32 32" fill="none" xmlns="http://www.w3.org/2000/svg">
<path d="M5.88799 8.90912C7.48298 8.90912 8.77598 7.58632 8.77598 5.95456C8.77598 4.3228 7.48298 3 5.88799 3C4.293 3 3 4.3228 3 5.95456C3 7.58632 4.293 8.90912 5.88799 8.90912Z" fill="black"/>
<path d="M28.9985 29H23.8164V20.6382C23.8164 18.6443 23.777 16.0782 21.116 16.0782C18.4141 16.0782 18.0014 18.2479 18.0014 20.4911V29H12.8193V11.805H17.7973V14.1488H17.8644C18.5599 12.7975 20.2513 11.3711 22.7782 11.3711C28.0289 11.3711 29 14.9296 29 19.5617L28.9985 29Z" fill="black"/>
<path d="M8.60664 29H3.40991V11.805H8.60664V29Z" fill="black"/>
<path d="M5.88799 8.90912C7.48298 8.90912 8.77598 7.58632 8.77598 5.95456C8.77598 4.3228 7.48298 3 5.88799 3C4.293 3 3 4.3228 3 5.95456C3 7.58632 4.293 8.90912 5.88799 8.90912Z" stroke="black" stroke-linejoin="round"/>
<path d="M28.9985 29H23.8164V20.6382C23.8164 18.6443 23.777 16.0782 21.116 16.0782C18.4141 16.0782 18.0014 18.2479 18.0014 20.4911V29H12.8193V11.805H17.7973V14.1488H17.8644C18.5599 12.7975 20.2513 11.3711 22.7782 11.3711C28.0289 11.3711 29 14.9296 29 19.5617L28.9985 29Z" stroke="black" stroke-linejoin="round"/>
<path d="M8.60664 29H3.40991V11.805H8.60664V29Z" stroke="black" stroke-linejoin="round"/>
</svg>
