<svg width="675" height="675" viewBox="0 0 675 675" fill="none" xmlns="http://www.w3.org/2000/svg">
<rect width="675" height="675" fill="white"/>
<path d="M131.467 181.023C130.467 152.307 152.84 125.828 183.081 125.828H492.958C523.199 125.828 545.572 152.307 544.572 181.023C543.611 208.606 544.858 244.338 553.851 273.472C562.872 302.697 578.085 321.169 603 323.543V350.457C578.085 352.831 562.872 371.303 553.851 400.528C544.858 429.662 543.611 465.394 544.572 492.978C545.572 521.693 523.199 548.172 492.958 548.172H183.081C152.84 548.172 130.467 521.693 131.468 492.978C132.427 465.394 131.18 429.662 122.186 400.528C113.166 371.303 97.9162 352.831 73 350.457V323.543C97.9152 321.169 113.166 302.697 122.186 273.472C131.18 244.338 132.427 208.606 131.467 181.023V181.023Z" fill="url(#paint0_linear_20_12)"/>
<path d="M349.493 449.27C398.453 449.27 427.956 425.298 427.956 385.758C427.956 355.87 406.905 334.232 375.648 330.807V329.561C398.612 325.826 416.634 304.499 416.634 280.682C416.634 246.747 389.842 224.641 349.015 224.641H257.155V449.27H349.493ZM292.879 253.129H340.404C366.239 253.129 380.91 264.648 380.91 285.507C380.91 307.768 363.847 320.221 332.908 320.221H292.879V253.129V253.129ZM292.879 420.784V346.841H340.084C373.893 346.841 391.436 359.294 391.436 383.579C391.436 407.863 374.372 420.784 342.157 420.784H292.879V420.784Z" fill="white" stroke="white" stroke-width="11.04"/>
<defs>
<linearGradient id="paint0_linear_20_12" x1="151.754" y1="137.006" x2="614.884" y2="504.638" gradientUnits="userSpaceOnUse">
<stop stop-color="#9013FE"/>
<stop offset="1" stop-color="#6610F2"/>
</linearGradient>
</defs>
</svg>
