<svg width="675" height="675" viewBox="0 0 675 675" fill="none" xmlns="http://www.w3.org/2000/svg">
<rect width="675" height="675" fill="white"/>
<path d="M138.481 186.32C137.515 158.58 159.128 133 188.342 133H487.695C516.909 133 538.522 158.58 537.556 186.32C536.628 212.967 537.833 247.485 546.52 275.63C555.235 303.862 569.931 321.707 594 324V350C569.931 352.293 555.235 370.138 546.52 398.37C537.833 426.515 536.628 461.033 537.556 487.681C538.522 515.42 516.909 541 487.695 541H188.342C159.128 541 137.515 515.42 138.482 487.681C139.409 461.033 138.204 426.515 129.516 398.37C120.802 370.138 106.07 352.293 82 350V324C106.069 321.707 120.802 303.862 129.516 275.63C138.204 247.485 139.409 212.967 138.481 186.32V186.32Z" stroke="black" stroke-width="40" stroke-linejoin="round"/>
<path d="M349.103 445.457C396.4 445.457 424.901 422.299 424.901 384.102C424.901 355.229 404.565 334.326 374.369 331.017V329.814C396.554 326.205 413.963 305.603 413.963 282.595C413.963 249.812 388.081 228.457 348.641 228.457H259.901V445.457H349.103ZM294.411 255.977H340.322C365.28 255.977 379.453 267.105 379.453 287.256C379.453 308.761 362.969 320.791 333.081 320.791H294.411V255.977V255.977ZM294.411 417.938V346.507H340.013C372.674 346.507 389.621 358.537 389.621 381.997C389.621 405.456 373.137 417.938 342.016 417.938H294.411V417.938Z" fill="black" stroke="black" stroke-width="8" stroke-linejoin="round"/>
</svg>
