<svg width="675" height="675" viewBox="0 0 675 675" fill="none" xmlns="http://www.w3.org/2000/svg">
<rect width="675" height="675" fill="white"/>
<g clip-path="url(#clip0_20_2)">
<path d="M248.768 604C297.748 604 337.5 564.203 337.5 515.167V426.333H248.768C199.787 426.333 160.035 466.131 160.035 515.167C160.035 564.203 199.787 604 248.768 604Z" fill="#0ACF83"/>
<path d="M160.035 337.5C160.035 288.464 199.787 248.667 248.768 248.667H337.5V426.333H248.768C199.787 426.333 160.035 386.536 160.035 337.5Z" fill="#A259FF"/>
<path d="M160.035 159.833C160.035 110.797 199.787 71 248.768 71H337.5V248.667H248.768C199.787 248.667 160.035 208.869 160.035 159.833Z" fill="#F24E1E"/>
<path d="M337.5 71H426.232C475.212 71 514.965 110.797 514.965 159.833C514.965 208.869 475.212 248.667 426.232 248.667H337.5V71Z" fill="#FF7262"/>
<path d="M514.965 337.5C514.965 386.536 475.212 426.333 426.232 426.333C377.252 426.333 337.5 386.536 337.5 337.5C337.5 288.464 377.252 248.667 426.232 248.667C475.212 248.667 514.965 288.464 514.965 337.5Z" fill="#1ABCFE"/>
</g>
<defs>
<clipPath id="clip0_20_2">
<rect width="355" height="533" fill="white" transform="translate(160 71)"/>
</clipPath>
</defs>
</svg>
