<svg width="675" height="675" viewBox="0 0 675 675" fill="none" xmlns="http://www.w3.org/2000/svg">
<rect width="675" height="675" fill="white"/>
<g clip-path="url(#clip0_20_2)">
<path d="M244.269 617.513C295.732 617.513 337.5 575.697 337.5 524.175V430.837H244.269C192.805 430.837 151.037 472.653 151.037 524.175C151.037 575.697 192.805 617.513 244.269 617.513Z" fill="#0ACF83"/>
<path d="M151.037 337.5C151.037 285.978 192.805 244.162 244.269 244.162H337.5V430.837H244.269C192.805 430.837 151.037 389.022 151.037 337.5Z" fill="#A259FF"/>
<path d="M151.038 150.825C151.038 99.3025 192.805 57.4873 244.269 57.4873H337.5V244.162H244.269C192.805 244.162 151.038 202.347 151.038 150.825Z" fill="#F24E1E"/>
<path d="M337.5 57.4873H430.731C482.195 57.4873 523.963 99.3025 523.963 150.825C523.963 202.347 482.195 244.162 430.731 244.162H337.5V57.4873Z" fill="#FF7262"/>
<path d="M523.963 337.5C523.963 389.022 482.195 430.837 430.731 430.837C379.268 430.837 337.5 389.022 337.5 337.5C337.5 285.978 379.268 244.162 430.731 244.162C482.195 244.162 523.963 285.978 523.963 337.5Z" fill="#1ABCFE"/>
</g>
<defs>
<clipPath id="clip0_20_2">
<rect width="373" height="560.025" fill="white" transform="translate(151 57.4873)"/>
</clipPath>
</defs>
</svg>
