<svg width="675" height="675" viewBox="0 0 675 675" fill="none" xmlns="http://www.w3.org/2000/svg">
<rect width="675" height="675" fill="white"/>
<path d="M461 154.186V513.64C461 553.86 493.313 576.272 527.592 576.272C559.303 576.272 594.184 557.21 594.184 513.64V156.909C594.184 120.038 562.474 97 527.592 97C492.711 97 461 122.407 461 154.186Z" fill="#F9AB00"/>
<path d="M256.408 319.531V496.535C256.408 536.755 288.721 559.167 323 559.167C354.711 559.167 389.592 540.105 389.592 496.535V322.254C389.592 285.383 357.882 262.345 323 262.345C288.119 262.345 256.408 287.752 256.408 319.531Z" fill="#E37400"/>
<path d="M148.592 559.166C185.37 559.166 215.184 533.563 215.184 501.981C215.184 470.398 185.37 444.795 148.592 444.795C111.814 444.795 82 470.398 82 501.981C82 533.563 111.814 559.166 148.592 559.166Z" fill="#E37400"/>
<path d="M459.065 174.926V495.03C459.065 540.768 491.814 568.806 527.991 568.806C544.143 568.806 561.444 563.176 574.859 550.6C588.578 537.738 596.917 518.846 596.917 495.03V177.351C596.917 134.278 564.308 106 527.991 106C491.747 106 459.065 136.316 459.065 174.926Z" stroke="black" stroke-width="36"/>
<path d="M269.033 337.403V495.031C269.033 540.768 301.781 568.806 337.958 568.806C354.111 568.806 371.412 563.176 384.826 550.6C398.546 537.738 406.884 518.846 406.884 495.031V339.828C406.884 296.755 374.275 268.478 337.958 268.478C301.715 268.478 269.033 298.793 269.033 337.403Z" stroke="black" stroke-width="36"/>
<path d="M147.926 568.806C185.992 568.806 216.852 537.947 216.852 499.88C216.852 461.814 185.992 430.955 147.926 430.955C109.859 430.955 79 461.814 79 499.88C79 537.947 109.859 568.806 147.926 568.806Z" stroke="black" stroke-width="36"/>
</svg>
