<svg width="675" height="675" viewBox="0 0 675 675" fill="none" xmlns="http://www.w3.org/2000/svg">
<rect width="675" height="675" fill="white"/>
<path d="M440 154.186V513.64C440 553.86 472.313 576.272 506.592 576.272C538.303 576.272 573.184 557.21 573.184 513.64V156.909C573.184 120.038 541.474 97 506.592 97C471.711 97 440 122.407 440 154.186Z" fill="#F9AB00"/>
<path d="M264 336.186V513.19C264 553.41 296.313 575.822 330.592 575.822C362.303 575.822 397.184 556.76 397.184 513.19V338.909C397.184 302.038 365.474 279 330.592 279C295.711 279 264 304.407 264 336.186Z" fill="#E37400"/>
<path d="M162 575.795C194.585 575.795 221 549.379 221 516.795C221 484.21 194.585 457.795 162 457.795C129.415 457.795 103 484.21 103 516.795C103 549.379 129.415 575.795 162 575.795Z" fill="#E37400"/>
</svg>
