<svg width="675" height="675" viewBox="0 0 675 675" fill="none" xmlns="http://www.w3.org/2000/svg">
<rect width="675" height="675" fill="white"/>
<path d="M393.159 554.407L306.608 469.979L467.212 305.369L556.823 393.226L393.159 554.407Z" fill="#7EB5FE"/>
<path d="M369.652 204.977L283.381 116.979L107.238 291.151C82.9208 315.443 82.9208 354.827 107.238 379.148L275.039 547.981L362.897 465.873L239.337 335.149L369.652 204.977Z" fill="#1F87FC"/>
<path d="M568.796 292.698L382.302 106.204C358.03 81.9319 318.668 81.9319 294.396 106.204C270.123 130.477 270.123 169.838 294.396 194.111L480.889 380.604C505.162 404.877 544.523 404.877 568.796 380.604C593.068 356.332 593.068 316.97 568.796 292.698Z" fill="#7EB5FE"/>
<path d="M336.823 586C370.308 586 397.454 558.854 397.454 525.369C397.454 491.883 370.308 464.738 336.823 464.738C303.337 464.738 276.191 491.883 276.191 525.369C276.191 558.854 303.337 586 336.823 586Z" fill="#0071E3"/>
</svg>
