<svg width="675" height="675" viewBox="0 0 675 675" fill="none" xmlns="http://www.w3.org/2000/svg">
<rect width="675" height="675" fill="white"/>
<path d="M389.003 540.5L308.188 461.667L458.15 307.965L541.822 390L389.003 540.5Z" fill="white" stroke="black" stroke-width="36"/>
<path d="M367.054 214.225L286.5 132.059L122.029 294.689C99.3236 317.372 99.3236 354.145 122.029 376.855L278.711 534.5L360.747 457.833L245.375 335.772L367.054 214.225Z" fill="white" stroke="black" stroke-width="36"/>
<path d="M553.002 296.134L378.866 121.998C356.202 99.334 319.449 99.334 296.785 121.998C274.121 144.662 274.121 181.415 296.785 204.079L470.921 378.215C493.585 400.879 530.338 400.879 553.002 378.215C575.666 355.551 575.666 318.798 553.002 296.134Z" fill="white" stroke="black" stroke-width="36"/>
<path d="M336.401 570C367.667 570 393.014 544.653 393.014 513.386C393.014 482.12 367.667 456.773 336.401 456.773C305.134 456.773 279.787 482.12 279.787 513.386C279.787 544.653 305.134 570 336.401 570Z" fill="white" stroke="black" stroke-width="36"/>
</svg>
