<svg width="675" height="675" viewBox="0 0 675 675" fill="none" xmlns="http://www.w3.org/2000/svg">
<rect width="675" height="675" fill="white"/>
<path fill-rule="evenodd" clip-rule="evenodd" d="M544.598 243.338L542.598 239.006L539.488 242.634C531.749 251.41 521.936 258.186 510.976 262.259L507.866 263.37L509.088 266.48C518.493 289.104 523.343 313.432 523.343 337.87C523.343 440.549 440.068 523.899 337.352 523.899C234.636 523.899 151.397 440.549 151.397 337.833C151.397 235.118 234.673 151.842 337.389 151.842C365.012 151.842 392.227 157.988 417.184 169.837L420.072 171.207L421.294 168.097C425.923 157.396 433.18 147.917 442.326 140.622L445.992 137.512L441.808 135.327C409.816 118.702 374.158 110 338.018 110C337.907 110 337.648 110 337.426 110C211.864 110 110 211.864 110 337.5C110 463.136 211.938 565 337.5 565C463.173 565 565 463.136 565 337.5C565 304.915 558.039 272.664 544.486 243.079L544.598 243.338Z" fill="black"/>
<path d="M251.822 337.611C251.822 290.313 290.226 251.936 337.494 251.933C384.813 251.966 423.185 290.32 423.216 337.623C423.209 384.958 384.837 423.326 337.5 423.326C290.2 423.326 251.822 384.956 251.822 337.611Z" stroke="black" stroke-width="36"/>
<path d="M551.6 195.868C551.6 159.868 522.444 130.657 486.389 130.657C450.381 130.657 421.179 159.859 421.179 195.868C421.179 231.932 450.362 261.153 486.389 261.153C522.518 261.153 551.6 231.868 551.6 195.868Z" stroke="black" stroke-width="36" stroke-linejoin="round"/>
</svg>
