<svg width="1094" height="421" viewBox="0 0 1094 421" fill="none" xmlns="http://www.w3.org/2000/svg">
<g clip-path="url(#clip0_4_516)">
<path fill-rule="evenodd" clip-rule="evenodd" d="M809.982 328.991C815.758 329.592 814.906 338.217 818.054 342.032C820.2 344.631 823.466 346.166 825.704 348.764C828.388 351.88 830.259 355.539 831.828 359.312C833.624 363.623 835.105 368.004 837.119 372.195C834.749 371.666 832.367 371.201 829.853 371.176C825.401 371.133 821.432 372.415 817.085 373.09C814.178 373.543 811.036 373.775 808.083 373.567C803.537 373.246 800.888 371.008 797.554 368.539C795.175 366.776 793.275 366.797 790.412 366.805C784.73 366.82 779.049 366.866 773.368 366.663C768.421 366.486 763.861 366.611 758.983 367.357C755.356 367.913 750.926 368.978 749.12 365.279C748.443 363.895 748.621 361.698 748.114 360.197C745.576 352.68 740.891 354.987 734.665 356.081C723.94 357.965 710.083 359.581 700.246 353.783C691.906 348.87 694.218 338.545 687.556 332.84C684.497 330.221 680.232 329.174 676.925 326.813C671.245 322.752 668.051 318.157 665.718 311.661C663.874 306.524 663.116 303.231 657.088 304.508C654.093 305.144 651.095 307.072 648.417 308.36C645.994 309.525 646.339 310.098 644.719 312.241C643.454 313.918 642.727 314.217 640.826 314.94C639.64 315.391 637.596 317.074 636.396 317.038C635.498 317.014 631.148 314.548 630.54 314.048C628.428 312.311 627.039 309.351 625.572 306.668C625.674 306.19 625.581 305.654 625.229 305.223C624.414 304.225 623.65 303.253 622.906 302.307C622.26 301.062 621.651 299.641 620.758 298.754C620.326 298.327 619.786 298.094 619.245 297.862C618.304 296.813 617.314 295.816 616.225 294.873C615.99 294.537 615.742 294.215 615.448 293.949C614.609 293.189 613.599 292.678 612.566 292.203C612.145 291.949 611.714 291.697 611.262 291.452C608.528 289.983 606.86 287.621 605.303 285.129C604.684 283.903 604.083 282.67 603.319 281.546C602.722 280.667 601.98 279.921 601.213 279.202C604.49 276.128 608.046 273.653 611.969 271.389C619.576 267.007 621.611 258.604 628.766 253.934C633.459 250.871 639.024 247.865 640.972 242.283C642.265 238.583 643.121 234.73 644.561 231.052C645.569 228.477 646.539 224.174 648.203 221.369C648.707 222.552 649.17 223.686 649.903 224.85C651.474 227.335 652.178 225.569 654.247 230.315C655.034 232.116 655.124 234.85 657.038 235.994C658.547 236.891 660.281 236.361 661.582 235.511C666.688 232.169 662.491 221.384 672.498 226.69C676.411 228.764 682.596 233.571 684.6 237.295C685.971 239.841 687.177 245.263 689.797 247.045C690.62 247.604 691.311 247.302 692.045 247.696H692.774C694.192 247.213 694.64 247.611 694.115 248.89C694.757 249.665 695.402 252.71 695.675 253.451C697.934 259.603 700.781 265.534 703.961 271.258C706.055 275.03 708.253 281.246 712.347 283.229C716.398 285.191 719.304 282.207 722.332 279.892C726.667 276.578 730.749 272.882 735.434 270.059C738.866 267.991 742.328 265.805 746.113 268.445C749.405 270.743 751.798 274.937 754.131 278.088C756.953 281.9 758.825 283.266 762.878 285.351C764.96 286.422 768.93 288.919 769.717 291.437C769.962 292.226 769.448 293.697 769.473 294.588C769.531 296.726 770.096 298.246 771.011 300.201C773.67 305.886 777.07 311.167 780.689 316.281C783.271 319.933 786.267 326.245 790.053 328.582C796.036 332.273 803.825 328.353 809.982 328.991ZM517.694 223.373C516.205 222.709 514.692 222.098 513.196 221.445C512.638 221.201 512.089 220.942 511.54 220.676C511.374 220.597 511.206 220.518 511.04 220.436C506.186 217.981 503.962 214.682 501.242 210.185C500.972 209.737 500.684 209.299 500.386 208.867C500.191 208.585 499.982 208.311 499.776 208.035C499.677 207.903 499.584 207.769 499.483 207.64C494.914 201.728 488.132 197.369 483.485 191.488C480.299 186.32 472.167 166.174 465.151 165.999L464.954 166.005C464.79 166.009 464.628 166.014 464.467 166.043C464.318 166.065 464.171 166.108 464.025 166.155L463.701 166.261L463.375 166.425C463.004 166.617 462.636 166.855 462.276 167.19C461.801 167.634 461.452 168.179 461.163 168.77C460.477 170.001 460.229 171.309 459.865 172.453L459.79 172.668C459.622 173.114 459.442 173.506 459.254 173.854C458.747 174.675 457.964 175.289 456.523 175.526C455.841 175.638 455.218 175.61 454.648 175.476C452.42 174.215 450.33 170.912 449.646 168.395C448.669 164.796 448.882 161.255 448.879 157.576C448.877 152.71 448.121 147.889 447.73 143.041C447.052 134.662 447.152 125.618 444.759 117.497C444.65 117.126 444.504 116.78 444.381 116.417C444.216 115.902 444.038 115.391 443.847 114.882L443.742 114.621C443.408 113.762 443.039 112.909 442.618 112.07C441.9 110.639 441.035 109.308 440.138 108.003C439.968 107.745 439.812 107.484 439.635 107.228C436.195 102.256 434.809 98.193 433.633 92.2402C433.19 90.0013 432.34 87.9712 431.403 85.9656C431.262 85.6313 431.128 85.2998 430.966 84.9628C430.085 83.1181 429.141 79.3443 427.482 76.7493C427.091 75.9771 426.598 75.2894 425.917 74.8255C424.454 73.8254 423.323 73.7668 422.374 74.202C420.804 74.6604 420.195 75.902 419.21 77.1245C417.729 78.9582 416.47 80.6432 414.668 81.6051C412.148 82.6802 409.41 82.4032 406.671 81.5314C404.882 80.8833 403.152 79.9965 401.446 79.2174C398.611 77.924 396.171 76.5665 394.116 74.8651C390.937 72.0504 389.177 68.5399 387.488 64.0989C386.761 61.8955 385.936 59.5992 384.369 57.9306C384.079 57.6223 383.763 57.3562 383.441 57.0956L383.418 57.0752L383.415 57.0724C383.175 56.8801 382.924 56.7054 382.669 56.5335C380.151 54.7748 377.152 53.9999 374.706 52.0884L374.412 51.8415C374.214 51.6764 374.026 51.4922 373.838 51.308C370.359 47.6733 370.413 42.3782 367.395 38.5198C365.042 35.5073 362.942 33.5031 361.667 30.4401L361.547 30.1576C361.486 30.0021 361.43 29.8356 361.374 29.6746C361.229 29.2517 361.093 28.8219 360.977 28.3635L360.935 28.167C360.808 27.6308 360.698 27.0755 360.614 26.482C360.08 22.6523 360.743 18.7502 359.645 15.0214L359.567 14.7663C359.505 14.5698 359.461 14.372 359.387 14.1755L359.248 13.8262C359.187 13.6625 359.147 13.496 359.08 13.3323C358.802 12.6583 358.474 12.0116 358.125 11.3744C357.566 10.3075 356.9 9.2242 356.153 8.19002C356.283 8.26369 356.412 8.33873 356.544 8.40422C356.896 8.57613 357.249 8.71939 357.601 8.85173L357.717 8.90905C360.799 10.2052 364.139 11.6596 365.185 15.4525C365.267 15.956 365.29 16.4676 365.283 16.9847C365.185 18.289 364.766 19.7243 364.806 20.895C364.819 21.2906 364.85 21.6617 364.89 22.0192C364.896 23.5023 365.205 24.9267 366.371 26.1996C367.68 27.6295 369.127 27.8819 370.655 27.8505C371.426 27.9324 372.264 27.9515 373.18 27.9051C376.941 27.5831 378.381 30.2982 381.745 30.6065C382.722 30.6952 383.625 30.466 384.506 30.1099L384.543 30.1003C388.66 28.9024 391.608 25.4519 395.093 31.0131C396.21 32.7922 396.693 35.2658 397.514 37.2141C398.637 39.8774 400.307 42.6566 402.894 44.0373C403.164 44.1901 403.445 44.3307 403.743 44.4466L403.908 44.5012C404.315 44.6472 404.743 44.7659 405.208 44.8382L405.209 44.8395C409.835 45.5627 412.583 42.5979 414.568 38.7258C415.649 36.929 416.519 35.0393 417.216 33.4935C418.213 31.2832 418.447 28.5518 419.702 26.5243C420.528 25.19 422.204 24.3741 423.112 23.0616C425.629 19.4228 424.102 15.2656 425.977 11.3581C431.154 0.563232 435.348 13.2163 437.948 17.9166C438.079 18.1526 438.213 18.3777 438.344 18.6124C438.41 18.7379 438.475 18.8771 438.543 18.9971C441.398 23.9471 443.926 28.6336 446.326 33.8209C446.394 33.9683 446.465 34.1034 446.531 34.248C447.708 36.8498 449.054 39.4094 451.117 41.3986C451.699 41.9607 452.344 42.4055 453.015 42.7971C453.639 43.2473 454.297 43.6771 455.034 44.0619C457.049 45.1138 458.978 45.6691 460.45 46.8943C463.052 49.4402 462.903 52.7911 462.611 56.1433C462.525 56.8228 462.448 57.4886 462.423 58.1175C462.418 58.2485 462.424 58.374 462.422 58.505C462.377 59.2254 462.353 59.9376 462.383 60.6307C462.547 64.4618 463.859 68.0842 465.796 71.3696C466.263 72.1623 466.773 72.9277 467.3 73.6808C467.468 73.9223 467.64 74.1611 467.814 74.3985C468.17 74.8801 468.537 75.3535 468.913 75.8202C469.474 76.5201 470.056 77.2009 470.657 77.8667L470.87 78.1055C472.255 79.6226 473.731 81.062 475.267 82.44L475.353 82.5178C475.743 82.8671 476.13 83.2164 476.527 83.5575L476.871 83.8617C477.045 84.0132 477.233 84.155 477.412 84.3024C479.405 85.9806 481.452 87.5891 483.485 89.1527C486.301 91.3166 489.185 93.2526 491.291 96.1341C492.72 98.0879 493.55 100.34 494.849 102.369C495.759 103.792 496.817 104.988 498.001 106.057C498.381 106.419 498.788 106.772 499.231 107.113L499.375 107.214C499.569 107.363 499.784 107.495 499.985 107.638C500.219 107.799 500.459 107.981 500.69 108.123C500.887 108.255 501.069 108.397 501.272 108.524C503.965 110.22 506.2 110.617 509.127 111.434C509.405 111.513 509.812 111.449 510.214 111.393L510.368 111.44C511.264 111.734 512.022 112.586 512.669 113.749C512.89 114.421 513.068 115.07 513.204 115.464C514.146 118.181 514.97 121.176 515.568 123.978C515.623 124.239 515.662 124.498 515.714 124.759C515.875 125.749 516.007 126.624 516.114 127.277C516.979 132.594 516.994 138.129 518.662 143.231L518.684 143.302C519.093 145.014 519.576 146.717 520.223 148.403C520.354 148.743 520.469 149.095 520.591 149.44C521.204 151.581 521.739 153.732 522.154 155.981C522.481 157.746 522.878 159.329 523.044 161.052C523.031 163.145 522.837 165.265 523.036 167.324C523.095 168.443 523.271 169.544 523.727 170.563C523.969 171.103 524.232 171.541 524.507 171.937L524.72 172.238L524.877 172.443C525.62 173.383 526.594 174.109 527.863 174.469C528.336 174.604 528.796 174.597 529.251 174.573C529.435 174.608 529.611 174.645 529.805 174.682C532.543 175.18 534.232 175.514 535.227 176.512L535.369 176.668L535.419 176.731C536.394 177.999 536.457 179.785 536.452 182.303C536.45 182.684 536.445 183.066 536.438 183.448C536.381 185.126 536.314 186.808 536.607 188.463L536.643 188.613C536.737 189.178 536.857 189.739 537.034 190.292C538.245 194.052 541.525 197.655 543.966 200.863C545.747 203.789 547.506 207.051 550.291 208.653C550.969 209.043 551.874 209.374 552.859 209.629C553.024 209.678 553.195 209.72 553.369 209.761L553.495 209.788C553.776 209.851 554.065 209.903 554.367 209.941C556.119 210.214 557.936 210.202 559.21 209.716C559.915 209.447 560.444 208.907 561.04 208.618C562.248 208.034 561.925 207.788 561.813 207.547C562.807 206.919 565.358 205.75 566.381 206.251C566.449 206.668 566.627 207.102 567.128 207.442C567.638 207.79 568.049 208.233 568.407 208.731C568.892 209.574 569.333 210.477 569.675 211.21C570.085 212.259 570.434 213.333 570.865 214.253C572.289 217.298 573.906 220.175 575.493 223.139C575.641 223.428 575.789 223.719 575.939 224.008C578.231 228.484 579.762 233.01 581.742 237.593C583.393 241.414 584.972 244.81 586.234 248.42C587.039 251.044 587.702 253.728 588.337 256.634C588.938 259.382 590.051 261.844 590.369 264.663C590.61 266.805 590.489 268.82 591.113 270.921C591.209 271.239 591.338 271.522 591.453 271.821L591.472 271.883L591.511 271.976C591.624 272.263 591.735 272.555 591.863 272.825C592.066 273.26 592.295 273.669 592.537 274.069L592.609 274.184C593.861 276.201 595.57 277.816 597.264 279.461C597.988 280.177 598.717 280.909 599.42 281.7C600.9 283.368 601.777 285.33 602.742 287.22C603.109 288.156 603.499 289.076 604.148 289.908C604.635 290.531 605.16 291.04 605.712 291.488C605.953 291.72 606.183 291.96 606.458 292.173C608.912 294.068 611.534 294.836 613.746 297.052C614.842 298.149 615.828 299.438 616.885 300.512C617.365 301.002 617.855 301.513 618.348 302.036C618.585 302.345 618.819 302.656 619.053 302.973C615.923 301.764 612.88 300.367 609.801 298.929C606.697 297.479 604.227 296.681 601.908 294.908C600.348 293.447 599.286 291.753 597.34 290.008C596.188 288.973 594.904 288.148 593.584 287.372C590.186 285.041 586.574 283.045 583.836 279.711C581.102 275.349 579.521 269.18 574.727 267.344C573.123 266.729 571.214 266.676 569.281 266.782C565.902 266.756 562.448 267.025 558.984 267.272C554.653 267.369 550.299 267.465 546.004 267.202C540.001 266.835 535.001 264.535 532.353 259.524C529.642 253.448 531.351 244.963 530.242 237.956C530.193 237.647 530.109 237.368 530.047 237.069C529.957 236.619 529.873 236.166 529.755 235.737C529.708 235.571 529.644 235.418 529.593 235.256C529.415 234.678 529.226 234.111 528.996 233.575L528.903 233.385C528.633 232.782 528.34 232.195 528.008 231.641L527.932 231.528C527.585 230.961 527.211 230.411 526.799 229.892L526.7 229.779C526.285 229.266 525.845 228.771 525.37 228.303L525.331 228.269C523.802 226.775 521.979 225.503 519.896 224.424C519.173 224.049 518.437 223.704 517.694 223.373ZM169.007 264.123C173.505 262.727 177.001 258.664 180.905 256.162C184.619 253.782 187.09 250.12 190.111 246.959C192.837 244.112 195.134 242.73 199.237 242.581C201.371 242.504 203.074 243.165 205.241 242.469C208.719 241.354 207.589 240.326 211.665 240.841C214.792 241.237 215.449 242.075 218.092 243.387C222.267 245.461 226.023 248.263 228.841 252.335C233.458 259.004 237.125 258.735 244.68 256.424C248.172 255.354 254.647 255.409 258.564 255.688C266.201 256.233 264.83 264.518 267.411 269.74C269.346 273.66 273.049 276.514 276.32 279.254C276.677 281.857 278.69 284.176 281.677 286.238C282.296 287.077 282.971 287.856 283.796 288.497C285.143 289.545 287.06 289.58 288.532 290.429C290.031 291.294 291.205 292.618 292.762 293.409C296.095 295.102 299.858 295.719 303.546 295.513C304.029 295.487 304.475 295.46 304.899 295.435C307.771 296.221 310.492 296.908 312.858 297.506C314.015 298.322 314.734 299.344 316.108 299.906C317.854 300.619 320.293 300.362 322.095 300.73C323.454 301.007 324.643 301.418 325.754 301.924C326.22 302.15 326.681 302.39 327.142 302.629C328.774 303.554 330.268 304.711 331.881 306.05C334.547 308.259 337.506 309.841 339.983 312.331C341.534 313.889 342.784 315.681 344.656 316.875C348.271 319.18 352.405 319.682 356.506 318.835C359.409 318.233 362.215 317.562 364.999 316.787C371.996 315.686 379.112 315.11 386.183 315.514C385.577 318.442 384.781 321.337 383.726 324.114C382.424 326.271 380.89 328.117 379.368 330.249C377.045 333.505 376.048 337.195 372.195 339.129C368.074 341.196 362.962 341.75 358.733 343.706C358.399 343.765 358.063 343.823 357.728 343.888C355.919 344.226 354.13 344.648 352.348 345.096C349.023 345.144 345.655 346.335 342.298 347.847C332.753 350.52 322.974 352.997 313.068 350.727C311.102 350.277 309.183 349.678 307.306 348.97C306.481 347.952 305.773 346.859 304.539 346.158C302.991 345.281 302.053 345.629 300.395 345.139C299.13 344.768 297.91 344.293 296.706 343.777C292.735 341.458 288.896 338.891 285.101 336.464C281.59 334.217 278.071 331.985 274.497 329.85C273.994 329.196 273.465 328.577 272.82 328.129C271.26 327.05 269.567 326.592 267.806 326.044C265.349 324.722 262.855 323.467 260.3 322.321C252.85 318.982 244.992 316.351 238.06 311.963C234.474 309.694 231.611 307.106 229.038 303.964C227.549 301.685 226.179 299.322 224.083 297.34C223.261 296.356 222.361 295.434 221.267 294.618C217.334 291.675 212.283 290.05 207.355 289.138C206.501 288.504 205.632 287.874 204.623 287.321C203.379 286.639 202.032 286.247 200.68 285.869C199.236 284.768 197.433 283.905 195.136 283.266C194.755 283.16 194.364 283.055 193.97 282.951C191.603 281.468 189.382 279.993 186.183 280.254C182.118 280.585 179.395 283.254 176.142 285.343C173.781 286.859 168.188 288.921 165.286 287.187C164.143 286.504 163.974 285.259 163.063 284.351C161.371 282.662 158.79 282.211 157.473 280.041C155.302 276.468 157.455 274.431 156.854 271.14C156.726 270.444 156.5 269.844 156.228 269.281C158.921 266.027 165.774 265.127 169.007 264.123ZM281.147 274.512C282.328 272.477 285.48 270.662 286.991 268.822C290.721 264.28 292.268 260.575 297.837 257.852C301.408 256.106 304.829 254.089 307.634 251.201C309.355 249.429 310.607 247.43 312.614 245.932C314.557 244.483 316.85 243.711 318.779 242.215C322.74 239.144 325.806 235.157 329.96 232.216C337.204 227.089 345.395 225.444 351.386 218.367C354.479 214.715 356.853 210.501 359.95 206.922C363.013 203.387 364.005 198.775 367.92 195.944C370.104 194.361 373.846 191.884 376.76 192.353C380.531 192.959 381.372 197.255 382.523 200.131C384.271 204.501 385.978 209.054 388.814 212.854C391.306 216.195 394.623 218.715 397.869 221.267C402.287 224.738 405.632 228.401 409.107 232.805C414.805 240.029 420.759 243.833 429.542 246.266C432.528 247.094 435.865 249.692 439.103 249.379C440.589 249.235 441.849 248.182 443.03 247.427C443.669 247.018 443.825 246.543 444.744 246.158C449.211 244.294 452.975 246.765 455.701 250.34C462.827 259.686 468.06 271.357 473.487 281.745C475.62 285.83 477.411 290.233 480.19 293.938C482.997 297.678 488.148 299.255 490.661 302.943C494.934 309.216 491.211 317.823 496.287 324.283C498.696 327.349 501.94 329.483 504.897 331.963C509.133 335.514 511.501 339.949 514.51 344.477C517.199 348.52 520.725 352.808 524.116 356.231C525.715 357.848 527.607 358.55 529.363 360.014C531.742 362 532.896 364.573 534.535 367.188C537.391 371.748 541.209 375.14 544.543 379.305C546.531 381.79 548.148 384.52 549.883 387.168C541.187 387.367 535.668 393.724 528.977 383.442C526.873 380.208 525.859 377.447 522.367 375.961C519.071 374.56 518.55 375.344 515.938 372.752C515.087 371.908 514.456 370.827 513.479 370.105C512.19 369.152 511.179 368.842 509.705 368.413C506.652 367.525 503.261 367.793 500.133 366.861C495.588 365.507 491.677 363.435 488.398 359.934C483.645 354.858 482.201 348.805 478.855 343.009C476.933 339.678 473.162 333.422 469.56 331.675C466.762 330.319 463.292 332.099 460.225 331.732C456.827 331.326 455.006 329.39 453.053 326.818C451.431 324.681 450.724 321.5 448.978 319.515C445.863 315.973 440.358 316.127 436.649 313.55C432.159 310.427 432.617 304.583 428.521 301.775C426.049 300.081 423.576 300.659 421.311 302.118C417.498 304.575 412.7 308.078 408.067 309.077C403.281 310.11 398.182 307.115 393.389 309.462C391.795 310.241 390.507 311.525 389.416 313.042C389.17 312.783 388.828 312.601 388.367 312.597L388.101 312.579L388.015 312.556C387.552 312.518 387.09 312.511 386.626 312.483C382.651 312.023 379.108 310.364 374.789 310.701C373.326 310.815 372.576 311.131 371.229 311.566C367.36 312.809 364.139 313.46 360.203 314.364C359.284 314.576 358.489 314.827 357.742 315.074C357.402 315.135 357.064 315.194 356.724 315.255C349.243 316.619 346.577 313.406 341.561 308.851C338.935 306.466 336.043 304.343 333.016 302.464C332.01 301.475 331.002 300.51 329.892 299.738C327.806 298.286 325.286 297.865 322.769 297.439C320.433 296.595 318.069 295.899 315.684 295.282C312.562 293.682 309.956 291.742 306.074 291.853C304.506 291.898 303.131 291.945 301.853 291.931C300.653 291.609 299.452 291.268 298.252 290.892C294.34 289.662 290.457 288.006 286.944 285.801C285.507 284.673 284.222 283.386 282.934 281.554C282.092 280.352 281.069 279.333 279.984 278.378C279.92 277.278 280.262 276.043 281.147 274.512ZM414.995 433.207C400.403 433.855 385.809 434.502 371.217 435.15C367.763 435.303 363.557 436.154 360.119 435.642C359.596 435.563 358.835 435.903 358.335 435.722C356.801 435.165 353.783 431.055 352.492 429.735C348.342 425.492 344.529 420.924 341.095 416.082L341.093 416.08C338.252 410.325 334.172 400.943 327.683 398.382C324.833 397.255 321.502 397.739 318.471 397.754C313.91 397.148 311.172 395.272 307.776 391.658C306.249 390.032 304.637 388.974 302.942 388.251C301.985 387.53 300.965 387.108 299.566 386.92C299.024 386.847 298.478 386.866 297.932 386.907C295.652 386.546 293.24 386.36 290.686 385.935C290.329 385.876 289.969 385.813 289.609 385.748C288.462 385.082 287.4 384.243 286.061 383.333C285.007 382.616 283.975 382.54 282.878 382.105C279.921 380.927 277.298 379.642 275.037 377.448C273.364 374.864 272.129 371.978 270.192 369.318C267.787 366.013 264.808 363.866 261.11 363.537C260.176 363.252 259.139 363.275 257.93 363.687C257.523 363.79 257.176 363.941 256.876 364.125L256.594 364.259C255.382 364.893 254.527 365.563 253.54 365.797C252.665 365.644 251.476 365.034 249.653 363.601C247.993 362.297 246.939 359.741 246.009 357.882C243.186 352.229 240.748 346.348 238.124 340.599C234.996 333.745 232.132 326.545 227.109 320.82C226.938 320.561 226.772 320.3 226.589 320.048C220.449 311.514 209.204 307.666 206.503 296.722C206.154 295.307 205.782 294.005 205.354 292.806C205.561 292.544 205.838 292.321 206.173 292.135C210.616 295.056 215.911 295.334 220.28 298.312C221.864 299.824 223.24 301.565 224.716 303.508C226.221 306.107 227.468 308.863 229.853 310.852C233.756 314.109 239.15 316.475 243.716 318.622C248.674 320.951 253.59 323.265 258.476 325.739C263.513 328.292 268.234 329.049 272.669 332.802C275.946 335.58 279.697 337.453 283.354 339.838C287.588 342.6 292.401 345.945 297.194 347.644C297.392 347.713 297.577 347.765 297.768 347.824C298.342 348.133 298.911 348.455 299.491 348.754C301.573 349.825 303.669 350.76 305.784 351.559C306.497 352.371 307.094 353.24 308.073 353.86C311.819 356.224 317.06 355.399 321.232 355.176C326.584 354.893 332.543 354.832 337.729 353.269C340.009 352.581 342.176 351.464 344.338 350.454C347.019 349.685 349.701 348.914 352.402 348.226C353.5 348.248 354.626 348.434 355.793 348.857C360.798 350.67 366.897 355.607 370.77 359.14C374.179 362.248 376.344 364.949 378.276 369.01C378.855 370.229 379.192 370.804 379.919 371.778C381.143 373.418 382.173 375.302 383.423 377.078C385.658 380.256 389.41 382.434 392.934 383.839C398.149 385.921 403.861 386.637 409.433 386.914C413.78 387.128 417.273 387.495 421.203 389.857C424.11 391.606 426.759 393.792 429.715 395.463C434.58 398.212 438.804 398.867 443.134 402.91C447.768 407.238 452.206 410.672 457.81 413.708C463.414 416.742 468.552 420.93 474.148 423.793C479.377 426.468 486.526 425.234 492.13 425.152C494.103 425.122 494.108 422.052 492.13 422.082C485.735 422.176 478.916 423.298 473.387 419.544C467.498 415.548 461.238 412.458 455.184 408.751C450.105 405.641 447.096 401.3 442.741 397.596C439.614 394.935 434.822 394.797 431.264 392.814C426.975 390.419 423.24 386.729 418.627 384.943C413.233 382.857 406.74 384.003 401.059 382.936C395.153 381.828 389.292 379.809 385.914 374.642C384.157 371.953 381.73 369.328 380.575 366.503C377.042 357.864 367.627 353.148 360.388 347.739C359.965 347.424 359.543 347.143 359.117 346.888C359.266 346.802 359.423 346.723 359.577 346.642C365.312 345.523 370.253 344.638 374.809 341.529C375.057 341.396 375.309 341.265 375.545 341.121C376.749 340.383 377.739 339.377 378.625 338.258C378.753 338.124 378.883 338.003 379.009 337.864C382.338 334.221 384.713 330.024 386.451 325.546C387.752 322.988 388.87 320.354 390.299 317.827C392.654 313.657 396.327 311.249 401.217 311.742C403.737 311.994 406.397 313.047 408.918 312.509C412.637 311.713 416.202 308.78 420.063 307.666C420.707 307.481 421.185 306.542 421.826 306.385C422.28 306.273 427.753 306.522 428.417 307.087C429.571 308.068 430.308 311.745 431.412 313.083C433.799 315.984 437.271 317.573 440.735 318.786C447.118 321.019 448.541 328.008 453.543 332.267C455.959 334.322 458.735 334.843 461.882 334.865C463.285 334.875 465.31 334.195 466.683 334.408C470.004 334.926 471.992 338.617 473.872 341.213C477.659 346.444 479.159 352.675 482.937 357.98C485.923 362.173 489.366 365.619 494.052 367.862C498.503 369.995 502.915 370.321 507.593 371.298C512.22 372.264 512.914 374.736 516.029 377.01C517.877 378.361 519.353 378.207 521.251 379.006C525.59 380.833 527.238 387.45 530.999 390.646C534.056 393.243 537.687 393.233 541.463 392.335C544.975 391.5 548.755 389.494 552.406 390.738C554.464 393.353 557.013 395.672 560.314 396.526C562.101 396.989 563.969 396.462 565.681 396.822C569.274 397.577 572.113 401.169 574.786 403.491C583.692 411.226 593.116 418.307 602.911 424.867C540.272 427.646 477.634 430.426 414.995 433.207ZM351.621 438.903C309.535 438.042 267.449 437.18 225.362 436.319C166.655 435.116 107.948 433.915 49.241 432.713C45.5146 432.637 39.3706 432.745 36.8427 432.335C24.1335 430.276 11.502 426.816 -1.07628 423.883C5.98666 420.265 14.1499 418.563 20.8856 414.055C28.9358 408.67 35.8187 401.49 44.3038 396.773C49.2247 394.038 54.0446 394.466 59.4373 393.72C63.6492 393.137 67.7969 391.991 71.7075 390.318C78.8236 387.277 82.3196 383.633 85.956 377.089C88.0149 373.385 91.6473 371.075 94.0607 367.608C96.9172 363.506 99.4438 359.963 103.043 356.414C108.496 351.035 108.937 347.248 105.8 340.5C103.744 336.073 98.9011 329.874 102.051 324.87C105.081 320.055 114.705 319.304 119.935 318.83C126.811 318.206 136.288 317.161 141.997 312.82C144.505 310.912 145.182 308.182 146.624 305.559C149.975 299.452 156.284 297.533 162.772 296.159C166.51 295.368 169.927 294.586 173.325 292.804C177.425 290.654 181.047 285.461 185.629 284.813C187.305 284.576 190.009 284.854 192.609 285.471C194.691 286.452 196.919 287.336 199.106 288.29C200.32 289.37 201.146 290.59 201.75 291.893C200.763 303.156 211.034 310.781 218.964 317.374C221.472 319.457 223.645 321.775 225.583 324.256C227.631 328.113 228.533 332.383 230.028 336.472C231.733 341.138 234.072 345.541 236.233 350.004C239.533 356.819 242.621 363.438 249.073 367.764C250.713 368.865 252.646 370.544 254.816 370.042C255.469 369.891 255.971 369.292 256.567 369.074C257.043 368.9 257.224 367.94 257.677 367.741C260.401 366.54 262.407 368.198 263.866 370.105C265.713 372.519 267.712 374.269 269.905 376.338C272.146 378.454 273.402 381.203 275.689 383.109L275.76 383.172L276.109 383.457C276.451 383.753 276.79 384.05 277.169 384.323C280.008 386.362 283.304 387.51 286.694 388.269C287.075 388.742 287.48 389.201 288.038 389.513C290.914 391.118 293.987 389.796 296.974 389.766C297.919 389.884 298.848 390.049 299.756 390.28C303.174 391.812 305.234 396.766 308.428 398.723C310.714 400.124 313.205 400.58 315.796 400.742C319.205 401.209 322.792 400.88 326.16 402.297C331.225 404.428 334.55 410.735 337.758 416.157C338.668 417.952 339.546 419.769 340.451 421.583C342.346 425.378 343.042 430.113 345.49 433.582C347.008 435.734 349.244 437.442 351.621 438.903ZM1083.86 400.775C1083 398.802 1081.95 398.036 1080.23 396.798C1076.42 394.068 1073.78 391.313 1070.92 387.584C1067.34 382.9 1063.68 380.776 1057.83 379.635C1051.43 378.387 1044.96 378.572 1038.48 378.313C1032.63 378.077 1027.7 376.793 1023.64 372.361C1021.84 370.394 1020.43 368.203 1018.34 366.492C1014.22 363.106 1008.87 361.373 1003.59 361.049C1000.56 360.864 997.377 361.682 994.376 361.267C989.05 360.533 987.366 357.036 983.798 353.931C978.646 349.45 973.349 347.867 967.043 345.87C958.769 343.25 950.951 334.937 949.325 326.218C949.238 325.744 948.735 325.226 948.255 325.147C943.971 324.425 940.787 325.183 937.501 328.135C935.54 329.896 934.103 332.251 932.073 333.926C929.581 335.984 928.123 336.606 925.202 336.175C922.979 335.846 919.686 334.634 919.292 332.027C919.221 331.565 918.686 331.019 918.22 330.955C914.646 330.46 910.614 330.032 907.405 328.257C903.924 326.334 901.685 321.406 898.981 318.292C894.082 312.65 889.27 309.774 882.461 306.856C872.405 302.545 878.914 290.928 871.326 285.494C867.316 282.624 859.547 284.641 855.585 286.644C849.127 289.911 844.475 296.752 837.724 299.381C833.189 301.146 831.004 295.739 826.409 296.817C824.116 297.356 821.939 299.917 819.43 300.673C817.017 301.401 814.401 301.704 811.92 302.112C808.648 302.65 804.86 302.68 801.827 304.15C795.385 307.272 792.463 315.853 787.864 320.957C787.745 320.796 787.628 320.637 787.505 320.47C781.21 311.877 772.95 302.418 772.785 291.437C772.74 288.411 772.117 286.719 769.636 284.845C768.259 283.804 766.975 283.656 765.483 282.932C762.032 281.256 759.316 279.487 756.779 276.538C753.617 272.862 751.28 268.767 747.482 265.611C744.343 263.007 743.506 263.068 739.589 264.569C735.704 266.057 732.233 268.359 728.913 270.83C725.856 273.107 720.813 279.097 717.388 279.753C710.541 281.065 706.802 270.256 704.322 265.439C701.063 259.116 698.426 252.561 696.373 245.753C696.178 245.106 695.581 244.626 694.895 244.626C688.357 244.626 687.897 234.242 683.304 230.534C680.489 228.262 677.188 225.971 674.182 223.994C672.45 222.856 669.583 221.189 667.337 221.422C665.75 221.587 664.67 222.398 663.645 223.56C661.718 225.742 660.6 236.53 657.678 230.988C656.621 228.988 657.543 226.556 655.764 224.713C655.192 224.121 654.234 223.997 653.72 223.443C652.008 221.604 651.009 219.881 649.869 217.698C649.386 216.771 648.165 216.767 647.461 217.386C643.427 220.935 641.844 229.195 640.173 234.133C638.754 238.331 638.211 242.128 635.104 245.469C632.448 248.328 628.221 250.527 624.921 252.664C622.431 254.273 621.281 255.58 619.764 258.176C616.885 263.106 614.389 266.392 609.254 269.153C605.394 271.226 602.147 274.035 599.05 277.001C598.327 276.267 597.644 275.533 597.013 274.774C594.552 271.226 594.106 267.527 593.352 263.583C593.288 262.79 593.191 262 592.996 261.217C591.751 256.234 590.949 250.767 589.139 245.944C588.878 245.25 588.593 244.57 588.299 243.895C586.571 239.825 584.489 235.998 583.073 231.796C581.487 227.089 578.719 222.727 576.352 218.374C574.844 215.601 574.012 212.497 572.58 209.746C571.555 207.691 569.309 205.577 568.888 203.385C568.818 203.024 568.521 202.654 568.174 202.451L567.816 202.314C566.742 202.112 565.594 201.891 564.469 201.897L564.418 201.9C563.928 201.905 563.444 201.96 562.97 202.073C562.649 202.149 562.331 202.248 562.024 202.391C561.766 202.511 561.516 202.655 561.273 202.831C560.867 203.125 560.557 203.429 560.301 203.733C560.129 203.935 559.98 204.139 559.84 204.339L559.637 204.638C559.3 205.13 558.981 205.596 558.464 205.987L558.129 206.214C557.645 206.502 557.006 206.736 556.107 206.892L556.018 206.896C552.21 207.47 547.99 202.332 544.912 197.736C543.502 195.626 542.327 193.627 541.533 192.341C539.342 188.776 539.747 185.162 539.747 181.513C539.749 179.973 539.678 178.422 539.299 176.854C539.236 176.596 539.155 176.337 539.075 176.078L538.996 175.803C538.493 174.301 537.894 173.468 537.188 172.96C535.83 171.944 534.049 172.071 531.767 171.403C524.135 168.701 526.405 165.567 526.355 160.77C526.354 160.643 526.355 160.517 526.351 160.387L526.334 160.123C526.324 159.913 526.317 159.707 526.294 159.495C526.221 158.817 526.125 158.109 526.017 157.391C525.722 155.262 525.351 153.021 524.873 151.072C524.327 148.841 523.31 146.403 522.451 144.171C521.395 140.846 520.807 137.964 520.451 134.372C520.241 132.234 519.893 130.114 519.475 128.003C518.564 123.12 517.299 118.282 515.89 113.552C515.829 113.344 515.771 113.178 515.711 112.987C515.311 111.581 514.91 110.555 514.175 109.812L514.048 109.686C513.875 109.527 513.68 109.382 513.467 109.25C512.83 108.853 512.004 108.566 510.875 108.366C506.715 107.632 503.921 106.441 501.646 104.611C498.744 102.075 496.894 98.5286 493.91 94.3659C489.801 88.6302 482.686 85.0473 477.525 80.3512C472.033 75.3549 466.44 69.1798 465.547 61.5762C465.244 56.7573 467.253 50.8728 464.671 46.6869C464.586 46.5423 464.49 46.4004 464.393 46.2598L464.272 46.0743L464.176 45.9638L464.031 45.7632L463.785 45.504L463.474 45.1752L463.372 45.0783C461 42.7725 457.629 41.8734 454.794 40.1107C452.731 38.5648 451.152 36.6643 449.808 34.0611C449.062 32.619 448.446 31.1154 447.832 29.6119C447.685 29.2517 447.535 28.8942 447.384 28.5395C446.886 27.332 446.376 26.1287 445.777 24.9676C444.039 21.5949 441.886 18.48 440.021 15.1769C438.372 11.4577 436.628 5.06016 432.823 3.76674C432.061 3.50615 431.193 3.48843 430.296 3.63987C428.646 3.865 426.941 4.68634 425.483 5.79147C424.369 6.59235 423.43 7.50512 422.857 8.35921C422.627 8.70439 422.452 9.04547 422.301 9.38383C422.215 9.54892 422.129 9.71266 422.059 9.87638C421.135 12.0362 421.281 14.2887 421.218 16.5358C421.091 18.4091 420.944 20.3056 419.902 22.052C419.102 23.3945 417.387 24.2295 416.503 25.5788C416.209 26.0304 416.008 26.3974 415.861 26.7317C415.686 27.0005 415.524 27.2843 415.384 27.5899C413.9 30.8166 413.614 34.4963 411.571 37.6848C408.983 41.7247 403.317 41.5064 400.816 37.1964C399.778 35.4077 399.398 33.2084 398.572 31.3078C398.364 30.8303 398.139 30.3718 397.904 29.9257C397.353 28.5681 396.611 27.3198 395.411 26.3511C394.315 25.4642 393.3 24.9935 392.32 24.778C391.176 24.43 389.89 24.3195 388.427 24.5242C384.608 25.0604 384.634 26.5789 380.209 25.9131C379.108 25.5311 378.223 24.928 376.416 24.6524C374.723 24.3932 373.093 24.8066 371.685 24.7848C366.472 24.0917 368.485 17.7501 367.827 13.0799C367.765 12.4618 367.624 11.8533 367.369 11.2544C367.206 10.8342 367.001 10.4399 366.741 10.0838C366.43 9.66353 366.082 9.31835 365.717 9.00591C365.595 8.89404 365.489 8.78216 365.354 8.67028C364.136 7.66747 362.646 7.21449 361.141 6.79563C360.845 6.69603 360.548 6.59507 360.249 6.49002C358.1 5.72597 356.408 4.41209 354.644 3.18553C353.778 2.39011 352.874 1.64926 351.854 1.35046C351.651 1.29179 351.45 1.24814 351.254 1.21676L350.999 1.09806C350.552 0.915232 350.151 1.00527 349.829 1.2263C349.011 1.36274 348.253 1.71884 347.549 2.20864C346.735 2.17317 346.296 2.70664 346.205 3.3479C345.398 4.15014 344.675 5.06699 344.033 5.91426C339.854 11.4304 332.734 13.1972 326.11 14.7076C319.199 16.2821 315.138 15.2793 309.821 20.4502C303.815 26.291 299.21 32.0063 291.939 36.6384C285.987 40.4286 280.394 41.8611 275.607 47.2395C271.36 52.0106 271.991 56.2252 269.782 61.8395C268.901 64.0812 266.934 66.14 265.901 68.3503C263.976 72.4747 264.207 77.2309 262.026 81.2285C254.109 95.7385 236.735 104.475 225.369 115.938C219.267 122.091 213.383 128.625 207.677 135.14C204.215 139.095 197.47 143.111 192.48 145.242C188.956 146.747 184.729 147.621 181.58 149.896C180.841 150.43 180.256 151.189 179.528 151.712C176.3 154.027 174.222 153.38 170.679 153.502C164.314 153.721 157.908 155.891 152.975 159.974C149.614 162.756 146.607 165.335 142.892 167.69C140.538 169.179 138.469 170.762 136.948 173.148C134.956 176.278 134.161 180.018 132.37 183.241C129.596 188.233 125.408 190.534 120.281 192.6C114.062 195.106 107.795 197.045 103.319 202.344C100.85 205.268 99.0825 208.736 96.6609 211.709C95.2033 213.499 93.7853 215.017 93.1076 217.1C89.5693 212.838 85.2007 209.187 80.5866 210.252C75.8661 211.342 71.7197 215.609 68.75 219.125C63.8523 224.921 60.0672 230.494 53.0234 233.823C47.2449 236.556 43.7257 239.005 39.1525 243.232C35.5256 246.581 30.9265 246.835 28.329 251.258C26.3233 254.666 25.9061 258.29 23.1122 261.385C19.8262 265.026 15.9743 265.153 11.532 266.257C7.77694 267.189 3.75733 268.071 0.244951 269.721C-2.53114 271.025 -4.74001 272.829 -7.8897 273.286C-9.83542 273.568 -9.00777 276.526 -7.07296 276.245C-1.82757 275.484 2.68562 271.905 7.83693 270.467C12.4006 269.19 18.6277 269.035 22.5955 266.348C26.0779 263.992 28.1613 259.492 30.062 255.92C31.9559 252.357 33.5349 250.161 37.2286 248.268C39.4511 247.128 40.7478 245.832 42.5026 244.091C46.9981 239.631 51.9912 238.085 57.4139 235.078C62.3034 232.366 65.4094 228.037 68.9341 223.806C73.5523 218.265 79.4412 210.752 87.2609 216.295C89.2857 217.729 91.2778 219.881 92.8458 221.787C94.2284 223.467 95.4733 225.218 96.3909 227.221C97.3072 229.225 96.1646 229.16 97.674 230.925C99.7833 233.393 103.582 232.954 106.463 232.88C108.289 232.834 110.125 232.897 111.899 232.377C113.776 231.826 115.413 229.858 117.137 229.483C124.614 227.853 124.744 236.447 128.301 239.978C130.311 241.972 131.496 243.878 133.017 246.278C135.003 249.407 135.566 252.588 137.115 255.875C138.664 259.166 141.839 262.004 144.638 264.247C146.189 265.49 148.04 266.107 149.652 267.227C151.037 268.19 151.888 269.086 152.408 269.961C152.151 270.718 152.498 271.294 153.039 271.583C153.423 273.48 152.757 275.38 153.062 277.721C153.344 279.876 155.042 282.655 156.658 284.086C157.566 284.891 159.022 285.068 159.948 285.792C160.868 286.509 161.326 287.811 162.195 288.576C163.021 289.306 163.11 289.549 164.197 290.036C165.995 290.844 168.512 290.937 170.861 290.63C169.034 291.476 167.094 292.061 165.146 292.559C160.859 293.659 156.669 294.312 152.577 296.106C149.363 297.514 146.603 299.325 144.703 302.336C143.631 304.036 143.357 306.235 142.262 307.89C139.929 311.412 135.812 312.364 132.022 313.383C127.209 314.677 122.667 315.329 117.756 315.984C113.72 316.523 108.677 316.885 104.891 318.287C99.632 320.234 97.4736 326.132 98.3462 331.333C98.9966 335.216 101.76 337.996 102.929 341.702C104.134 345.525 104.219 350.277 101.575 353.568C100.18 355.305 98.2112 356.623 96.7154 358.286C93.6816 361.658 91.9936 365.96 88.769 369.188C87.1382 370.823 85.457 371.918 84.1971 373.878C82.5377 376.458 81.8465 379.493 79.6798 381.791C75.7721 385.937 69.3977 388.292 64.065 389.674C59.1019 390.96 54.0324 390.426 49.1033 391.518C38.8252 393.795 31.3314 403.218 23.0618 408.972C17.8464 412.6 12.856 415.287 6.9152 417.626C2.6379 419.308 -2.15754 420.648 -5.99443 423.176C-6.42939 423.463 -6.63664 423.861 -6.683 424.269C-6.82481 424.91 -6.60665 425.603 -5.90035 425.893C-5.69719 426.015 -5.46676 426.08 -5.21996 426.077C10.8666 429.707 27.2805 435.333 43.8238 435.672C65.5267 436.114 87.2296 436.561 108.934 437.003C175.295 438.363 241.656 439.72 308.016 441.081C324.629 441.419 341.24 441.76 357.852 442.101C359.334 442.133 359.993 439.943 358.626 439.242C353.316 436.512 348.738 433.84 346.467 428.054C346.385 427.846 346.299 427.649 346.217 427.443C349.101 430.732 352.148 433.877 355.403 436.788C359.046 440.049 364.045 438.538 368.741 438.327C428.676 435.67 488.612 433.008 548.547 430.349C568.164 429.478 587.782 428.608 607.4 427.736C607.935 427.844 608.417 427.604 608.734 427.205L608.758 427.17C608.862 427.032 608.95 426.878 609.009 426.711L609.027 426.655C609.133 426.332 609.148 425.98 609.036 425.651C608.92 425.249 608.659 424.908 608.236 424.752C608.033 424.62 607.831 424.482 607.628 424.351C608.84 424.745 610.115 425.03 611.485 425.15C613.451 425.321 613.44 422.25 611.485 422.081C604.218 421.448 597.249 414.684 591.052 411.193C584.315 407.4 579.271 402.513 573.649 397.401C572.188 396.07 570.719 395.33 569.218 394.832C568.385 394.376 567.486 394.016 566.465 393.822C565.603 393.657 564.776 393.615 563.966 393.59C563.011 393.368 562.036 393.097 561.03 392.707C558.062 391.554 556.516 389.562 554.389 388.306C553.734 387.389 553.127 386.442 552.533 385.537C546.799 376.831 539.761 369.45 534.201 360.639C531.697 356.672 527.743 355.27 524.678 351.8C521.09 347.736 517.743 343.843 514.867 339.208C512.594 335.543 510.383 332.578 507.067 329.792C502.869 326.267 497.817 323.268 496.235 317.634C494.208 310.416 496.877 302.85 489.729 297.955C479.23 290.767 475.056 277.88 469.033 266.972C466.039 261.547 462.944 256.174 459.677 250.908C457.831 247.931 455.505 242.513 451.85 241.155C448.686 239.979 446.53 241.706 443.821 243.023C441.122 244.335 445.183 243.322 439.167 244.514C432.354 245.862 438.183 245.12 433.566 244.269C430.439 243.691 426.537 242.605 423.674 241.297C413.826 236.8 409.126 226.244 400.834 219.715C396.374 216.204 392.136 212.971 389.308 207.904C386.717 203.261 385.711 197.721 382.964 193.213C378.99 186.69 371.203 189.732 366.154 193.383C363.422 195.359 361.975 197.19 360.44 200.045C357.619 205.289 353.129 211.572 349.217 216.197C342.627 223.986 332.503 225.974 324.814 232.318C320.551 235.835 317.102 239.444 312.368 242.315C307.93 245.007 305.468 249.738 301.092 252.618C297.462 255.007 293.196 255.694 290.241 258.994C286.662 262.996 284.1 267.483 280.157 271.241C278.496 272.825 277.415 274.331 276.822 275.762C275.641 274.803 274.487 273.815 273.481 272.673C268.939 267.513 269.418 261.079 265.867 255.578C264.387 253.284 262.963 252.689 260.216 252.545C258.14 252.436 256.032 252.883 253.945 252.842C251.414 252.792 249.027 251.962 246.506 252.372C244.484 252.7 242.731 254.155 240.773 254.728C235.795 256.185 233.243 252.823 230.602 249.399C229.261 247.662 227.509 246.7 226.041 245.132C224.992 244.011 224.401 242.368 223.09 241.476C221.098 240.118 217.863 239.343 215.677 238.073C214.563 237.428 213.94 236.613 212.619 236.329C211.554 236.101 210.517 236.288 209.504 236.584C208.761 236.8 208.45 237.117 207.773 237.407C204.849 238.66 202.488 239.53 198.996 239.436C194.465 239.312 192.785 239.853 189.408 243.214C187.807 244.807 186.173 246.356 184.642 248.015C181.452 251.471 178.498 253.639 174.772 256.398C172.259 258.259 170.526 260.511 167.371 261.383C165.096 262.013 162.793 262.226 160.619 263.232C158.681 264.128 156.277 265.334 154.512 266.97C153.339 265.877 151.875 265.031 150.394 264.15C147.683 262.532 145.47 260.968 143.302 258.671C140.357 255.55 139.821 252.857 138.436 249.186C137.141 245.748 134.52 241.881 132.136 239.121C130.673 237.425 129.407 236.213 128.27 234.239C127.13 232.259 126.432 230.036 124.911 228.271C122.768 225.784 120.634 224.435 117.453 225.642C115.082 226.541 113.638 228.652 111.084 229.416C106.414 230.811 101.905 229.664 99.137 225.562C98.1471 224.094 96.8777 222.113 95.3901 220.058C95.5524 219.881 95.6846 219.66 95.7283 219.34C96.151 216.204 98.6189 214.336 100.434 211.969C102.644 209.086 104.187 205.678 106.756 203.066C111.192 198.556 117.632 197.123 123.252 194.684C127.326 192.914 131.073 190.855 133.628 187.129C137.406 181.618 137.791 174.917 143.67 170.83C145.919 169.268 148.443 168.204 150.582 166.467C152.633 164.801 154.254 162.699 156.448 161.177C159.349 159.166 162.678 157.831 166.13 157.131C169.79 156.39 174.034 157.589 177.511 156.629C178.726 156.294 179.53 155.65 180.55 154.959C184.194 152.485 187.084 150.668 191.239 149.021C194.832 147.597 198.465 145.92 201.743 144.063C211.509 138.533 218.449 127.7 226.124 119.598C235.505 109.696 247.182 102.15 256.773 92.4245C260.036 89.1172 264.031 85.0378 265.749 80.6213C266.781 77.9677 266.795 75.0466 267.643 72.3424C268.616 69.2439 270.751 67.2615 272.096 64.4659C274.841 58.7561 273.792 53.8907 278.399 48.728C282.745 43.8559 289.163 42.1545 294.536 38.6181C299.273 35.4991 303.671 32.0186 307.411 27.7495C309.115 25.8053 310.731 23.6578 312.694 21.9592C316.796 18.4091 319.738 19.0135 324.227 18.2713C329.651 17.3749 335.405 15.5603 340.334 13.1017C341.814 12.3636 343.388 11.5859 344.608 10.4221C345.94 9.15053 346.514 6.77381 348.114 5.85014C348.324 5.73007 348.527 5.63047 348.726 5.54315C350.447 6.18303 352.118 7.84346 353.494 9.73038C354.541 11.2653 355.509 12.8384 356.168 14.5548C358.001 19.3191 356.613 24.3741 357.905 29.2408C358.078 29.8929 358.291 30.571 358.535 31.2519C358.781 31.9327 359.059 32.6189 359.365 33.2888C359.518 33.6245 359.679 33.9574 359.845 34.2821C360.344 35.2604 360.901 36.1854 361.499 36.9917C362.004 37.6753 362.598 38.2251 363.196 38.8009C363.392 38.9919 363.592 39.187 363.786 39.3889C364.074 39.6864 364.33 39.9838 364.565 40.2826C365.966 42.0781 366.518 43.9322 367.309 46.0866C367.441 46.4454 367.579 46.8124 367.729 47.1904C368.328 48.6939 369.052 50.091 369.942 51.368C370.833 52.6437 371.889 53.7993 373.152 54.8226C375.841 57.0015 379.866 57.5732 382.199 60.1013C383.914 61.9596 384.637 64.6392 385.38 67.2424C385.528 67.7622 385.677 68.2793 385.835 68.7855C386.151 69.8006 386.503 70.7734 386.956 71.6479C388.426 74.4926 390.547 76.5665 393.202 78.3374C394.133 78.9582 395.182 79.6267 396.312 80.298C396.69 80.5217 397.076 80.7469 397.469 80.9693C398.651 81.6378 399.901 82.2968 401.187 82.8998C401.615 83.1017 402.047 83.2969 402.482 83.4851C403.786 84.0486 405.114 84.5453 406.428 84.93C406.866 85.0583 407.302 85.1742 407.737 85.2766C408.604 85.4812 409.462 85.6299 410.298 85.7104C411.134 85.7909 411.949 85.8032 412.732 85.735C413.465 85.6709 414.178 85.5276 414.864 85.3134C416.919 84.6681 418.721 83.3801 420.086 81.6405C420.269 81.4086 420.415 81.1971 420.536 81.0034C420.719 80.7155 420.846 80.4699 420.959 80.2666C421.033 80.1315 421.101 80.0156 421.174 79.9173C421.502 79.4767 421.93 79.4084 423.526 79.6786C423.847 79.7318 424.121 79.7905 424.357 79.8532C424.827 79.9801 425.145 80.1302 425.374 80.3198L425.659 80.6377C425.817 80.8738 425.922 81.1576 426.038 81.5082C426.154 81.8588 426.282 82.2763 426.491 82.7784C428.588 87.8375 430.209 91.9401 431.323 97.418C432.231 101.885 434.417 105.064 436.986 108.778C437.389 109.362 437.768 109.95 438.123 110.545C440.251 114.103 441.523 117.818 442.344 121.646C442.89 124.2 443.236 126.802 443.5 129.445C443.832 132.748 444.036 136.113 444.348 139.514C444.803 144.45 445.458 149.436 445.753 154.376C445.896 156.771 445.76 159.164 445.771 161.554C445.776 162.987 445.833 164.419 446.034 165.849C446.514 169.263 447.603 173.327 449.955 176.157C450.739 177.1 451.664 177.905 452.752 178.501C455.132 179.808 457.401 179.842 459.222 178.765C460.314 178.12 461.244 177.074 461.939 175.664C462.389 174.753 462.716 173.781 463.03 172.91C463.188 172.473 463.342 172.064 463.507 171.697C463.623 171.442 463.747 171.218 463.879 171.012C463.983 170.851 464.095 170.708 464.215 170.586C464.335 170.462 464.466 170.361 464.606 170.283C464.779 170.19 464.962 170.121 465.173 170.11C465.944 170.07 467.002 170.626 468.566 172.09C469.599 173.056 470.502 174.318 471.316 175.692C471.586 176.149 471.846 176.619 472.098 177.094C473.107 178.999 473.977 180.992 474.804 182.643C476.921 186.877 479.239 190.345 481.839 193.592C483.79 196.027 485.9 198.339 488.204 200.758C488.972 201.564 489.763 202.381 490.575 203.22C494.463 207.23 497.622 210.572 500.541 215.354C500.902 215.947 501.29 216.512 501.7 217.047C502.521 218.119 503.444 219.082 504.479 219.952C504.997 220.388 505.544 220.799 506.121 221.19C512.184 225.309 521.397 226.222 525.399 232.989C530.377 241.403 525.086 252.475 529.547 261.352C529.803 261.861 530.08 262.341 530.375 262.794C532.736 266.418 536.31 268.313 540.275 269.295C540.771 269.419 541.273 269.527 541.78 269.623C544.817 270.2 548.017 270.322 551.032 270.335C552.439 270.34 553.85 270.348 555.263 270.354C559.499 270.367 563.745 270.355 567.965 270.159C569.275 270.099 570.401 270.191 571.387 270.419C572.373 270.647 573.217 271.01 573.964 271.486C575.208 272.279 576.179 273.387 577.076 274.716C577.972 276.045 578.792 277.593 579.737 279.267C581.479 282.358 583.844 284.847 586.684 286.961C588.787 288.524 591.169 289.563 593.315 291.02C594.255 291.658 595.007 292.407 595.686 293.206C596.817 294.534 597.747 296 599.005 297.314C601.492 299.914 605.026 300.183 608.252 301.579C613.894 304.022 619.268 306.811 623.742 311.075C624.091 311.406 624.482 311.526 624.857 311.502C625.516 312.466 626.186 313.419 626.883 314.345C629.175 317.39 631.146 320.846 635.398 320.441C637.603 320.228 639.342 318.891 641.309 318.063C642.943 317.377 645.061 317.392 646.316 316.091C647.764 314.591 647.236 312.633 649.224 311.358C649.502 311.181 652.499 310.645 653.163 310.312C655.607 309.081 658.167 305.488 660.995 308.008C662.668 309.499 662.899 313.368 663.815 315.383C666.05 320.296 668.035 323.707 672.247 327.154C677.016 331.053 684.09 332.915 687.436 337.935C690.066 341.881 690.071 346.843 692.697 350.872C695.186 354.687 699.105 357.107 703.385 358.519C714.886 362.313 726.074 359.868 737.664 358.579C747.726 357.458 743.535 363.833 746.929 368.784C748.675 371.333 752.308 371.109 755.021 370.947C762.062 370.525 768.597 369.639 775.704 369.828C783.457 370.036 791.283 368.364 797.707 373.058C807.805 380.438 818.675 373.914 829.853 374.246C834.889 374.395 839.305 376.711 844.262 377.119C850.515 377.632 859.4 376.946 864.193 381.461C867.731 384.797 869.15 386.84 873.936 387.944C876.086 388.441 878.464 388.497 880.52 388.993C885.814 390.269 888.512 393.722 892.436 396.931C898.915 402.23 900.474 411.313 907.583 416.028C912.291 419.151 918.107 419.733 923.446 421.105C927.197 422.068 930.794 423.221 934.62 423.869C938.679 424.557 943.1 424.206 946.382 426.747C950.263 429.75 950.993 435.922 954.504 439.719C957.055 442.478 959.867 445.189 963.824 444.99C965.788 444.89 965.799 441.819 963.824 441.92C957.452 442.243 953.856 433.132 951.986 428.89C950.844 426.299 949.732 423.984 947.063 422.742C943.252 420.969 938.195 421.448 934.163 420.696C928.188 419.582 921.95 417.96 916.111 416.253C909.967 414.459 905.666 411.263 902.765 405.489C901.067 402.109 899.869 398.895 896.996 396.171C894.507 393.814 891.28 391.695 888.594 389.438C885.24 386.617 882.917 386.277 878.67 385.794C872.29 385.07 869.578 382.151 865.266 377.953C862.66 375.415 860.381 375.795 856.756 375.252C853.141 374.714 849.596 373.94 845.954 373.744C844.253 373.654 842.612 373.374 840.991 373.043C836.617 365.078 834.899 355.756 829.346 348.421C826.659 344.875 821.779 342.462 819.542 338.779C817.52 335.453 818.053 330.223 815.438 327.263C813.676 325.267 811.471 325.669 809.167 326.032C805.366 326.632 801.493 327.219 797.629 326.95C793.716 326.679 791.72 325.523 789.801 323.389C794.338 318.525 797.551 309.237 803.982 306.586C810.112 304.06 817.563 305.509 823.68 302.603C825.855 301.572 827.008 299.592 829.528 300.298C831.103 300.738 832.7 302.707 834.275 303.314C838.099 304.788 838.387 302.835 841.25 300.733C846.114 297.162 851.035 292.783 856.25 289.71C860.388 287.272 865.754 286.271 869.308 289.5C873.031 292.884 872.286 297.644 873.67 302.284C874.997 306.729 877.525 308.051 881.647 309.815C889.38 313.131 895.642 317.487 900.212 324.766C902.789 328.871 904.633 330.893 909.514 332.389C911.487 332.996 914.643 332.818 916.269 333.915C917.238 334.568 917.758 336.148 918.816 336.963C921.331 338.899 926.355 340.161 929.437 339.384C933.941 338.249 936.391 333.187 939.67 330.305C941.133 329.021 944.69 327.489 946.71 328.877C946.353 328.631 948.818 333.321 948.626 332.967C950.03 335.543 951.684 338.148 953.539 340.411C957.182 344.855 961.645 347.575 967.156 349.121C975.288 351.404 980.229 354.97 986.233 360.747C990.401 364.757 994.532 364.292 1000.01 364.135C1009.69 363.856 1015.29 367.587 1021.47 374.531C1025.68 379.259 1031.14 380.982 1037.35 381.354C1045.76 381.859 1055.67 380.481 1063.42 384.547C1067.45 386.66 1069.26 391.067 1072.22 394.32C1074.56 396.89 1079.88 399.273 1081.21 402.323C1082 404.13 1084.64 402.569 1083.86 400.775Z" fill="black" stroke="black" stroke-width="2" stroke-linejoin="round"/>
</g>
<defs>
<clipPath id="clip0_4_516">
<rect width="1094" height="421" fill="white"/>
</clipPath>
</defs>
</svg>
