<svg width="28" height="28" viewBox="0 0 28 28" fill="none" xmlns="http://www.w3.org/2000/svg">
<path d="M15.3913 21.7474H23.9706C24.2444 21.7474 24.5065 21.6512 24.7435 21.5155C24.9806 21.3799 25.225 21.2095 25.3619 20.9745C25.4987 20.7395 25.5939 20.4728 25.5938 20.2015C25.5936 19.9301 25.4989 19.6636 25.3619 19.4287L19.565 9.45804C19.4282 9.22305 19.261 9.05264 19.024 8.91696C18.7869 8.78134 18.4475 8.68509 18.1738 8.68509C17.9 8.68509 17.6379 8.78134 17.4009 8.91696C17.1638 9.05264 16.9966 9.22305 16.8598 9.45804L15.3913 12.0087L12.4541 7.0618C12.3172 6.82686 12.1503 6.57929 11.9131 6.44366C11.676 6.30798 11.414 6.28906 11.1402 6.28906C10.8665 6.28906 10.6044 6.30798 10.3673 6.44366C10.1302 6.57929 9.88591 6.82686 9.74898 7.0618L2.56084 19.4287C2.42379 19.6636 2.40637 19.9301 2.40625 20.2015C2.40613 20.4728 2.424 20.7394 2.56084 20.9745C2.69767 21.2095 2.94207 21.3799 3.17917 21.5155C3.41626 21.6512 3.6783 21.7474 3.95209 21.7474H9.3625C11.5063 21.7474 13.0667 20.7857 14.1546 18.9649L16.7825 14.4047L18.1738 12.0087L22.4248 19.2741H16.7825L15.3913 21.7474ZM9.28523 19.2741H5.4979L11.1402 9.53531L14 14.4047L12.1057 17.7069C11.3833 18.8884 10.5596 19.2741 9.28523 19.2741Z" fill="#00DC82"/>
</svg>
