<svg width="675" height="675" viewBox="0 0 675 675" fill="none" xmlns="http://www.w3.org/2000/svg">
<rect width="675" height="675" fill="white"/>
<path d="M405.164 336.16C404.722 301.293 375.812 274.266 340.265 274.266H169.165C135.535 275.828 107.215 302.354 107.215 336.16C107.215 369.966 135.535 399.44 169.165 401.002H278.315V504.158C278.315 540.204 308.169 569 343.215 569C378.231 569 405.164 540.204 405.164 504.158V336.16Z" stroke="black" stroke-width="36" stroke-linejoin="round"/>
<path d="M167.234 400.734C202.157 400.734 230.468 372.423 230.468 337.5C230.468 302.577 202.157 274.266 167.234 274.266C132.311 274.266 104 302.577 104 337.5C104 372.423 132.311 400.734 167.234 400.734Z" stroke="black" stroke-width="36" stroke-linejoin="round"/>
<path d="M572.359 167.894C571.918 133.027 543.112 106 507.692 106H337.208C303.699 107.562 275.481 134.088 275.481 167.894C275.481 201.7 303.699 231.173 337.208 232.736H445.965V335.892C445.965 371.938 475.712 400.734 510.632 400.734C545.522 400.734 572.359 371.938 572.359 335.892V167.894Z" stroke="black" stroke-width="36" stroke-linejoin="round"/>
</svg>
