<svg width="675" height="675" viewBox="0 0 675 675" fill="none" xmlns="http://www.w3.org/2000/svg">
<rect width="675" height="675" fill="white"/>
<path d="M406.566 339.899C406.112 304.112 376.466 276.371 340.012 276.371H164.553C130.066 277.974 101.025 305.201 101.025 339.899C101.025 374.598 130.066 404.849 164.553 406.453H276.484V512.333C276.484 549.331 307.099 578.886 343.038 578.886C378.946 578.886 406.566 549.331 406.566 512.333V339.899Z" fill="#B366F6"/>
<path d="M163.041 406.453C198.962 406.453 228.082 377.333 228.082 341.412C228.082 305.491 198.962 276.371 163.041 276.371C127.12 276.371 98 305.491 98 341.412C98 377.333 127.12 406.453 163.041 406.453Z" fill="#8430CE"/>
<path d="M579 167.466C578.546 131.678 548.9 103.937 512.446 103.937H336.987C302.501 105.541 273.459 132.767 273.459 167.466C273.459 202.164 302.501 232.416 336.987 234.019H448.918V339.899C448.918 376.897 479.533 406.453 515.472 406.453C551.38 406.453 579 376.897 579 339.899V167.466Z" fill="#C58AF8"/>
</svg>
