<svg width="28" height="28" viewBox="0 0 28 28" fill="none" xmlns="http://www.w3.org/2000/svg">
<path d="M2.5 17.5535C2.5 17.5529 2.50001 17.5523 2.50003 17.5517L4.79075 19.8546C4.79075 19.8546 4.79076 19.8546 4.79076 19.8546C4.79138 19.8552 4.7919 19.8557 4.79233 19.8562C4.79214 19.857 4.79183 19.8581 4.79134 19.8592C4.79123 19.8595 4.79112 19.8598 4.79101 19.86H2.50078C2.5004 19.8596 2.50021 19.8592 2.50016 19.8591L2.50011 19.8589L2.5 19.8574V17.5535ZM2.50093 15.1297L2.5009 15.1296C2.50066 15.1294 2.5 15.1284 2.5 15.1269V12.5286C2.5 12.5279 2.50001 12.5273 2.50003 12.5268L9.78927 19.8546C9.78989 19.8552 9.79041 19.8557 9.79084 19.8562C9.79065 19.857 9.79034 19.8581 9.78985 19.8592C9.78974 19.8595 9.78963 19.8598 9.78952 19.86H7.20639L2.50093 15.1297ZM2.50093 10.1047L2.50093 10.1047C2.50064 10.1044 2.5 10.1035 2.5 10.1019V7.50365C2.5 7.50298 2.50001 7.50237 2.50003 7.50182L14.7878 19.8546C14.7884 19.8552 14.7889 19.8557 14.7893 19.8562C14.7891 19.857 14.7888 19.8581 14.7884 19.8592C14.7882 19.8595 14.7881 19.8598 14.788 19.86H12.2049L2.50093 10.1047ZM7.49946 10.1047C7.49946 10.1047 7.49946 10.1047 7.49945 10.1047C7.49912 10.1044 7.4985 10.1034 7.4985 10.1019V7.50365C7.4985 7.50298 7.49851 7.50237 7.49853 7.50182L16.4946 16.5454C16.4947 16.5456 16.495 16.5459 16.4952 16.5465C16.4954 16.5469 16.4955 16.5475 16.4955 16.5483V19.1465C16.4955 19.1472 16.4955 19.1478 16.4955 19.1484L7.49946 10.1047ZM12.497 7.50365C12.497 7.50298 12.497 7.50237 12.497 7.50182L16.4946 11.5205C16.4947 11.5206 16.4948 11.5208 16.4949 11.521C16.4952 11.5215 16.4955 11.5223 16.4955 11.5233V14.1216C16.4955 14.1222 16.4955 14.1229 16.4955 14.1234L12.498 10.1047C12.498 10.1047 12.498 10.1047 12.4979 10.1047C12.4976 10.1044 12.497 10.1034 12.497 10.1019V7.50365Z" stroke="black"/>
<path d="M22.9076 17.968L22.9076 17.968C23.5912 18.6552 24.4791 19.0912 25.4289 19.2155L25.4289 19.2155C25.4531 19.2187 25.473 19.2302 25.4844 19.2421C25.4895 19.2475 25.4915 19.2514 25.492 19.2527C25.4924 19.2536 25.4924 19.2538 25.4924 19.2549V19.8575L25.4923 19.8591L25.4923 19.8593C25.4922 19.8594 25.492 19.8598 25.4917 19.8602H18.2029C18.2025 19.8598 18.2024 19.8594 18.2023 19.8593L18.2023 19.8591L18.2021 19.8575V13.2395C18.2021 13.2388 18.2022 13.2382 18.2022 13.2377L22.9076 17.968ZM18.8016 17.9482C18.8016 18.6657 19.3813 19.2522 20.1014 19.2522C20.8215 19.2522 21.4012 18.6657 21.4012 17.9482C21.4012 17.2307 20.8215 16.6442 20.1014 16.6442C19.3813 16.6442 18.8016 17.2308 18.8016 17.9482Z" fill="black" stroke="black"/>
</svg>
