<svg width="28" height="28" viewBox="0 0 28 28" fill="none" xmlns="http://www.w3.org/2000/svg">
<path d="M7.44551 14.436C7.26126 14.8065 6.73535 14.8065 6.55109 14.436L6.11041 13.55C6.04002 13.4085 6.04002 13.2419 6.11041 13.1004L6.55109 12.2144C6.73535 11.8439 7.26126 11.8439 7.44551 12.2144L7.88621 13.1004C7.95656 13.2419 7.95656 13.4085 7.88621 13.55L7.44551 14.436Z" fill="#1D4AFF"/>
<path d="M7.44551 19.4609C7.26126 19.8314 6.73535 19.8314 6.55109 19.4609L6.11041 18.5749C6.04002 18.4334 6.04002 18.2668 6.11041 18.1253L6.55109 17.2393C6.73535 16.8688 7.26126 16.8688 7.44551 17.2393L7.88621 18.1253C7.95656 18.2668 7.95656 18.4334 7.88621 18.5749L7.44551 19.4609Z" fill="#1D4AFF"/>
<path d="M2 17.5535C2 17.1057 2.53857 16.8815 2.85356 17.1981L5.14525 19.5019C5.46023 19.8186 5.23715 20.36 4.7917 20.36H2.5C2.22386 20.36 2 20.135 2 19.8574V17.5535ZM2 15.1269C2 15.2602 2.05268 15.388 2.14645 15.4823L6.85206 20.2128C6.94582 20.307 7.073 20.36 7.2056 20.36H9.7902C10.2357 20.36 10.4588 19.8186 10.1438 19.5019L2.85356 12.1732C2.53857 11.8565 2 12.0808 2 12.5286V15.1269ZM2 10.1019C2 10.2352 2.05268 10.3631 2.14645 10.4573L11.8505 20.2128C11.9443 20.307 12.0715 20.36 12.2041 20.36H14.7887C15.2342 20.36 15.4573 19.8186 15.1423 19.5019L2.85356 7.14823C2.53858 6.83159 2 7.05585 2 7.50365V10.1019ZM6.9985 10.1019C6.9985 10.2352 7.0512 10.3631 7.14495 10.4573L16.1419 19.5019C16.4569 19.8186 16.9955 19.5943 16.9955 19.1465V16.5483C16.9955 16.4149 16.9428 16.2871 16.849 16.1928L7.85205 7.14823C7.53705 6.83158 6.9985 7.05585 6.9985 7.50365V10.1019ZM12.8505 7.14823C12.5355 6.83158 11.997 7.05585 11.997 7.50365V10.1019C11.997 10.2352 12.0497 10.3631 12.1434 10.4573L16.1419 14.477C16.4569 14.7937 16.9955 14.5694 16.9955 14.1216V11.5233C16.9955 11.39 16.9428 11.2621 16.849 11.1679L12.8505 7.14823Z" fill="#F9BD2B"/>
<path d="M23.262 17.6154L18.5557 12.8841C18.2407 12.5674 17.7021 12.7917 17.7021 13.2395V19.8575C17.7021 20.1351 17.926 20.3602 18.2021 20.3602H25.4924C25.7686 20.3602 25.9924 20.1351 25.9924 19.8575V19.2549C25.9924 18.9772 25.7676 18.7556 25.4938 18.7197C24.6534 18.6097 23.8674 18.2239 23.262 17.6154ZM20.1014 18.7522C19.6599 18.7522 19.3016 18.392 19.3016 17.9482C19.3016 17.5044 19.6599 17.1442 20.1014 17.1442C20.5429 17.1442 20.9012 17.5044 20.9012 17.9482C20.9012 18.392 20.5429 18.7522 20.1014 18.7522Z" fill="black"/>
<path d="M2 19.8573C2 20.1349 2.22386 20.3599 2.5 20.3599H4.7917C5.23715 20.3599 5.46023 19.8185 5.14525 19.5019L2.85356 17.198C2.53857 16.8814 2 17.1057 2 17.5535V19.8573Z" fill="#1D4AFF"/>
<path d="M6.9985 11.3151L2.85356 7.14823C2.53857 6.83158 2 7.05584 2 7.50365V10.1019C2 10.2352 2.05268 10.3631 2.14645 10.4573L6.9985 15.3351V11.3151Z" fill="#1D4AFF"/>
<path d="M2.85356 12.1736C2.53857 11.857 2 12.0812 2 12.529V15.1273C2 15.2606 2.05268 15.3884 2.14645 15.4827L6.9985 20.3605V16.3405L2.85356 12.1736Z" fill="#1D4AFF"/>
<path d="M11.9975 11.5233C11.9975 11.39 11.9449 11.2621 11.8511 11.1679L7.85257 7.14823C7.53762 6.83158 6.99902 7.05584 6.99902 7.50365V10.1019C6.99902 10.2352 7.05172 10.3631 7.14547 10.4573L11.9975 15.3351V11.5233Z" fill="#F54E00"/>
<path d="M6.99902 20.3598H9.79072C10.2362 20.3598 10.4593 19.8184 10.1443 19.5017L6.99902 16.3398V20.3598Z" fill="#F54E00"/>
<path d="M6.99902 11.3154V15.1272C6.99902 15.2605 7.05172 15.3883 7.14547 15.4826L11.9975 20.3603V16.5486C11.9975 16.4153 11.9449 16.2874 11.8511 16.1932L6.99902 11.3154Z" fill="#F54E00"/>
</svg>
