<svg width="675" height="675" viewBox="0 0 675 675" fill="none" xmlns="http://www.w3.org/2000/svg">
<rect width="675" height="675" fill="white"/>
<g clip-path="url(#clip0_49_150)">
<path d="M564.996 372.866C542.995 372.981 523.874 378.28 507.863 386.113C501.988 374.478 496.114 364.111 495.077 356.508C493.925 347.637 492.543 342.223 493.925 331.625C495.308 321.027 501.528 305.936 501.413 304.784C501.297 303.632 500.03 298.218 487.36 298.103C474.689 297.987 463.746 300.522 462.479 303.863C461.212 307.203 458.793 314.806 457.18 322.64C454.992 334.159 431.839 375.285 418.592 396.827C414.33 388.417 410.644 381.045 409.838 375.17C408.686 366.299 407.304 360.885 408.686 350.287C410.068 339.689 416.289 324.598 416.173 323.446C416.058 322.294 414.791 316.88 402.12 316.765C389.45 316.649 378.507 319.184 377.24 322.524C375.973 325.865 374.59 333.699 371.941 341.302C369.292 348.905 338.537 417.562 330.473 435.303C326.327 444.403 322.756 451.661 320.222 456.614C320.222 456.614 320.107 456.96 319.761 457.536C317.572 461.798 316.305 464.102 316.305 464.102C316.305 464.102 316.305 464.102 316.305 464.217C314.578 467.327 312.735 470.207 311.813 470.207C311.122 470.207 309.855 461.913 312.043 450.624C316.651 426.778 327.594 389.684 327.479 388.417C327.479 387.726 329.552 381.275 320.337 377.934C311.352 374.594 308.127 380.123 307.321 380.123C306.514 380.123 305.938 382.081 305.938 382.081C305.938 382.081 315.96 340.38 286.817 340.38C268.617 340.38 243.506 360.309 231.066 378.28C223.233 382.542 206.531 391.643 188.677 401.435C181.881 405.236 174.854 409.038 168.289 412.609C167.828 412.148 167.367 411.572 166.906 411.111C131.659 373.442 66.4625 346.831 69.227 296.259C70.2637 277.828 76.599 229.445 194.436 170.694C291.425 122.888 368.601 136.135 381.963 165.511C401.084 207.442 340.61 285.316 240.396 296.605C202.154 300.867 182.111 286.122 177.043 280.593C171.744 274.833 170.938 274.487 168.98 275.639C165.755 277.367 167.828 282.551 168.98 285.546C171.975 293.38 184.3 307.203 205.149 314C223.579 319.99 268.387 323.331 322.641 302.365C383.345 278.865 430.802 213.548 416.864 158.829C402.927 103.304 310.776 84.9877 223.579 115.976C171.744 134.407 115.533 163.437 75.1016 201.222C27.0682 246.149 19.4658 285.201 22.5759 301.559C33.7491 359.618 113.805 397.403 145.827 425.396C144.214 426.317 142.717 427.124 141.45 427.815C125.439 435.763 64.3891 467.673 49.1843 501.426C31.9061 539.671 51.9488 567.088 65.1954 570.775C106.318 582.179 148.592 561.674 171.284 527.806C193.976 493.938 191.211 449.933 180.729 429.773C180.614 429.543 180.499 429.312 180.268 429.082C184.415 426.663 188.677 424.128 192.824 421.709C201.002 416.871 209.065 412.378 215.977 408.692C212.06 419.405 209.18 432.192 207.798 450.624C206.07 472.281 214.94 500.389 226.574 511.448C231.757 516.286 237.862 516.401 241.779 516.401C255.371 516.401 261.476 505.112 268.272 491.749C276.565 475.391 284.053 456.384 284.053 456.384C284.053 456.384 274.722 507.762 300.064 507.762C309.279 507.762 318.609 495.781 322.756 489.676C322.756 489.791 322.756 489.791 322.756 489.791C322.756 489.791 322.986 489.445 323.447 488.639C324.369 487.141 324.944 486.22 324.944 486.22C324.944 486.22 324.944 486.105 324.944 485.989C328.63 479.538 336.924 464.908 349.249 440.602C365.145 409.268 380.465 370.101 380.465 370.101C380.465 370.101 381.847 379.662 386.57 395.56C389.335 404.891 395.094 415.143 399.701 425.05C396.015 430.234 393.712 433.114 393.712 433.114C393.712 433.114 393.712 433.114 393.827 433.229C390.832 437.146 387.607 441.408 384.036 445.555C371.48 460.531 356.506 477.695 354.433 482.649C352.014 488.524 352.59 492.786 357.197 496.242C360.538 498.776 366.527 499.122 372.632 498.776C383.921 497.97 391.869 495.205 395.785 493.477C401.89 491.288 409.032 487.948 415.713 482.994C428.038 473.894 435.525 460.876 434.834 443.712C434.488 434.266 431.378 424.82 427.577 415.949C428.729 414.337 429.766 412.724 430.917 411.111C450.384 382.657 465.474 351.439 465.474 351.439C465.474 351.439 466.856 361 471.579 376.898C473.883 384.961 478.605 393.716 482.752 402.241C464.437 417.101 453.149 434.381 449.117 445.67C441.86 466.636 447.505 476.082 458.217 478.271C463.055 479.308 469.966 477.004 475.034 474.815C481.485 472.742 489.087 469.171 496.344 463.871C508.669 454.771 520.534 442.099 519.843 424.935C519.497 417.101 517.424 409.383 514.544 401.895C530.094 395.444 550.137 391.873 575.709 394.868C630.538 401.319 641.366 435.533 639.293 449.933C637.219 464.332 625.7 472.166 621.899 474.585C618.098 477.004 616.831 477.81 617.177 479.538C617.637 482.073 619.48 481.957 622.706 481.497C627.198 480.69 651.503 469.862 652.539 443.366C654.267 409.498 622.014 372.52 564.996 372.866ZM142.026 515.48C123.826 535.294 98.4848 542.782 87.5419 536.446C75.7927 529.649 80.4003 500.389 102.747 479.423C116.339 466.636 133.848 454.771 145.481 447.513C148.131 445.901 152.047 443.597 156.77 440.717C157.576 440.256 158.037 440.026 158.037 440.026C158.958 439.45 159.88 438.874 160.802 438.298C168.98 468.249 161.147 494.629 142.026 515.48ZM274.492 425.396C268.157 440.832 254.91 480.345 246.847 478.156C239.936 476.313 235.674 446.362 245.465 416.756C250.418 401.895 260.9 384.155 267.005 377.243C276.911 366.184 287.854 362.498 290.503 366.991C293.844 372.866 278.408 415.719 274.492 425.396ZM383.806 477.695C381.156 479.078 378.622 479.999 377.47 479.308C376.664 478.847 378.622 477.004 378.622 477.004C378.622 477.004 392.329 462.259 397.743 455.577C400.853 451.661 404.539 447.053 408.456 441.869C408.456 442.33 408.456 442.906 408.456 443.366C408.456 460.992 391.408 472.857 383.806 477.695ZM468.123 458.457C466.165 457.075 466.511 452.467 473.076 438.067C475.61 432.423 481.6 422.976 491.852 413.876C493.004 417.562 493.81 421.133 493.695 424.474C493.58 446.707 477.684 455.001 468.123 458.457Z" fill="#C76494"/>
</g>
<defs>
<clipPath id="clip0_49_150">
<rect width="631" height="473" fill="white" transform="translate(22 101)"/>
</clipPath>
</defs>
</svg>
