<svg width="34" height="33" viewBox="0 0 34 33" fill="none" xmlns="http://www.w3.org/2000/svg">
<path d="M18.0383 28.0058L24.528 31.4453C24.8845 31.6318 25.2859 31.7152 25.6871 31.6861C26.0884 31.657 26.4736 31.5166 26.7994 31.2806C27.1253 31.0446 27.3789 30.7225 27.5317 30.3503C27.6846 29.9782 27.7306 29.5708 27.6646 29.1739L26.4316 21.8839C26.3685 21.5379 26.3906 21.1818 26.4962 20.8463C26.6017 20.5108 26.7875 20.2061 27.0373 19.9586L32.3372 14.8102C32.6288 14.5294 32.8358 14.1725 32.9346 13.7799C33.0334 13.3873 33.02 12.9749 32.8961 12.5895C32.7722 12.2042 32.5426 11.8613 32.2334 11.6C31.9243 11.3386 31.548 11.1692 31.1474 11.1111L23.8574 10.0511C23.5108 9.99907 23.1821 9.86358 22.8994 9.65633C22.6168 9.44908 22.3888 9.17626 22.235 8.86136L18.9685 2.22029C18.7914 1.85455 18.5148 1.54611 18.1705 1.33029C17.8262 1.11447 17.428 1 17.0216 1C16.6153 1 16.2171 1.11447 15.8728 1.33029C15.5284 1.54611 15.2519 1.85455 15.0747 2.22029L11.8083 8.86136C11.6545 9.17626 11.4264 9.44908 11.1438 9.65633C10.8612 9.86358 10.5325 9.99907 10.1859 10.0511L2.85258 11.1111C2.45197 11.1692 2.0757 11.3386 1.76657 11.6C1.45744 11.8613 1.22785 12.2042 1.1039 12.5895C0.97995 12.9749 0.96662 13.3873 1.06543 13.7799C1.16423 14.1725 1.37121 14.5294 1.66282 14.8102L6.96269 19.9586C7.21638 20.204 7.40618 20.5078 7.51553 20.8433C7.62488 21.1789 7.65045 21.5362 7.59002 21.8839L6.33536 29.1739C6.26941 29.5708 6.31545 29.9782 6.46829 30.3503C6.62113 30.7225 6.87472 31.0446 7.20057 31.2806C7.52641 31.5166 7.9116 31.657 8.31286 31.6861C8.71412 31.7152 9.11554 31.6318 9.47202 31.4453L15.9617 28.0058C16.28 27.8316 16.6371 27.7403 17 27.7403C17.3629 27.7403 17.72 27.8316 18.0383 28.0058V28.0058Z" fill="#FFF389"/>
<path d="M6.96249 25.5187L13.5819 22.0359C14.0173 21.8011 14.5042 21.6782 14.9988 21.6782C15.4935 21.6782 15.9804 21.8011 16.4157 22.0359L25.6094 26.8599C26.1492 27.1599 26.7702 27.2811 27.3832 27.206L27.7293 29.1745C27.7982 29.5743 27.7533 29.9854 27.5996 30.3609C27.446 30.7364 27.1899 31.0611 26.8605 31.2979C26.5312 31.5348 26.1419 31.6743 25.737 31.7004C25.3322 31.7266 24.9281 31.6384 24.571 31.4459L18.0814 28.0064C17.7712 27.8434 17.426 27.7583 17.0755 27.7583C16.7251 27.7583 16.3799 27.8434 16.0696 28.0064L9.57997 31.4459C9.22106 31.664 8.80643 31.7729 8.38668 31.7593C7.96693 31.7457 7.5602 31.6102 7.21615 31.3694C6.87209 31.1285 6.60559 30.7927 6.44914 30.403C6.2927 30.0132 6.25309 29.5864 6.33515 29.1745L6.96249 25.5187Z" fill="#FFE501"/>
<path d="M18.0383 28.0058L24.528 31.4453C24.8845 31.6318 25.2859 31.7152 25.6871 31.6861C26.0884 31.657 26.4736 31.5166 26.7994 31.2806C27.1253 31.0446 27.3789 30.7225 27.5317 30.3503C27.6846 29.9782 27.7306 29.5708 27.6646 29.1739L26.4316 21.8839C26.3685 21.5379 26.3906 21.1818 26.4962 20.8463C26.6017 20.5108 26.7875 20.2061 27.0373 19.9586L32.3372 14.8102C32.6288 14.5294 32.8358 14.1725 32.9346 13.7799C33.0334 13.3873 33.02 12.9749 32.8961 12.5895C32.7722 12.2042 32.5426 11.8613 32.2334 11.6C31.9243 11.3386 31.548 11.1692 31.1474 11.1111L23.8574 10.0511C23.5108 9.99907 23.1821 9.86358 22.8994 9.65633C22.6168 9.44908 22.3888 9.17626 22.235 8.86136L18.9685 2.22029C18.7914 1.85455 18.5148 1.54611 18.1705 1.33029C17.8262 1.11447 17.428 1 17.0216 1C16.6153 1 16.2171 1.11447 15.8728 1.33029C15.5284 1.54611 15.2519 1.85455 15.0747 2.22029L11.8083 8.86136C11.6545 9.17626 11.4264 9.44908 11.1438 9.65633C10.8612 9.86358 10.5325 9.99907 10.1859 10.0511L2.85258 11.1111C2.45197 11.1692 2.0757 11.3386 1.76657 11.6C1.45744 11.8613 1.22785 12.2042 1.1039 12.5895C0.97995 12.9749 0.96662 13.3873 1.06543 13.7799C1.16423 14.1725 1.37121 14.5294 1.66282 14.8102L6.96269 19.9586C7.21638 20.204 7.40618 20.5078 7.51553 20.8433C7.62488 21.1789 7.65045 21.5362 7.59002 21.8839L6.33536 29.1739C6.26941 29.5708 6.31545 29.9782 6.46829 30.3503C6.62113 30.7225 6.87472 31.0446 7.20057 31.2806C7.52641 31.5166 7.9116 31.657 8.31286 31.6861C8.71412 31.7152 9.11554 31.6318 9.47202 31.4453L15.9617 28.0058C16.28 27.8316 16.6371 27.7403 17 27.7403C17.3629 27.7403 17.72 27.8316 18.0383 28.0058V28.0058Z" stroke="black" stroke-width="2" stroke-linecap="round" stroke-linejoin="round"/>
</svg>
