<svg width="675" height="675" viewBox="0 0 675 675" fill="none" xmlns="http://www.w3.org/2000/svg">
<rect width="675" height="675" fill="white"/>
<path d="M332.036 171.108C234.597 174.188 205.637 243.392 199 280.883C207.648 266.986 234.898 236.494 275.02 236.494C321.779 236.494 357.376 288.382 379.096 304.578C405.484 324.255 458.509 350.236 528.12 329.172C583.627 312.376 609.369 253.789 615 225.996C588.152 262.287 547.426 284.085 497.048 258.388C462.356 240.692 436.413 167.81 332.036 171.108Z" stroke="black" stroke-width="36" stroke-linejoin="round"/>
<path d="M194.036 336.109C96.5968 339.207 67.6367 408.828 61 446.545C69.6478 432.564 96.8985 401.888 137.02 401.888C183.779 401.888 219.376 454.089 241.096 470.383C267.484 490.178 320.509 516.316 390.12 495.125C445.627 478.228 471.369 419.288 477 391.327C450.152 427.837 409.426 449.767 359.048 423.915C324.356 406.112 298.413 332.791 194.036 336.109Z" stroke="black" stroke-width="36" stroke-linejoin="round"/>
</svg>
