<svg width="675" height="675" viewBox="0 0 675 675" fill="none" xmlns="http://www.w3.org/2000/svg">
<rect width="675" height="675" fill="white"/>
<path d="M331.811 174.707C236.362 177.738 207.993 245.865 201.491 282.773C209.963 269.093 236.657 239.075 275.96 239.075C321.764 239.075 356.634 290.155 377.911 306.1C403.76 325.471 455.703 351.048 523.893 330.311C578.267 313.776 603.484 256.101 609 228.74C582.7 264.467 542.806 285.926 493.456 260.628C459.472 243.208 434.058 171.46 331.811 174.707Z" fill="#07B6D5"/>
<path d="M196.32 337.09C100.87 340.121 72.5012 408.248 66 445.156C74.4713 431.475 101.166 401.458 140.469 401.458C186.273 401.458 221.143 452.538 242.42 468.482C268.269 487.853 320.211 513.43 388.402 492.694C442.775 476.159 467.993 418.484 473.509 391.123C447.208 426.85 407.314 448.309 357.964 423.011C323.98 405.591 298.567 333.842 196.32 337.09Z" fill="#07B6D5"/>
</svg>
