<svg width="675" height="675" viewBox="0 0 675 675" fill="none" xmlns="http://www.w3.org/2000/svg">
<rect width="675" height="675" fill="white"/>
<path d="M371.629 142.002C374.844 136.432 380.787 133 387.219 133H552.297C558.727 133 564.669 136.43 567.885 141.999C571.1 147.567 571.101 154.428 567.887 159.998L353.238 531.907C350.023 537.478 344.08 540.91 337.648 540.91C331.217 540.91 325.274 537.478 322.059 531.907L107.41 159.998C104.196 154.428 104.197 147.567 107.412 141.999C110.628 136.43 116.57 133 123 133H288.078C294.509 133 300.452 136.432 303.667 142.002L337.648 200.879L371.629 142.002Z" stroke="black" stroke-width="36" stroke-linejoin="round"/>
<path d="M371.629 142.002C374.844 136.432 380.787 133 387.219 133H466.437C472.868 133 478.81 136.43 482.025 141.999C485.241 147.568 485.242 154.429 482.027 159.998L353.238 383.139C350.023 388.71 344.08 392.142 337.648 392.142C331.217 392.142 325.274 388.71 322.059 383.139L193.27 159.998C190.055 154.429 190.056 147.568 193.272 141.999C196.487 136.43 202.429 133 208.859 133H288.078C294.509 133 300.452 136.432 303.667 142.002L337.648 200.879L371.629 142.002Z" stroke="black" stroke-width="36" stroke-linejoin="round"/>
</svg>
