<svg width="40" height="38" viewBox="0 0 40 38" fill="none" xmlns="http://www.w3.org/2000/svg">
<g clip-path="url(#clip0_49_2)">
<path d="M32.5911 14.17L32.4611 17.43L21.2411 6.20001C20.8037 5.73722 20.211 5.45182 19.5765 5.39832C18.9419 5.34482 18.3099 5.52699 17.8011 5.91001C17.5295 6.12989 17.3072 6.40447 17.1487 6.71591C16.9902 7.02734 16.899 7.36865 16.8811 7.71765C16.8632 8.06664 16.9189 8.4155 17.0447 8.74153C17.1705 9.06756 17.3634 9.36347 17.6111 9.61001L16.0211 8.02001C15.5358 7.51472 14.877 7.21211 14.1774 7.17314C13.4779 7.13418 12.7896 7.36174 12.2511 7.81001C11.9822 8.05258 11.7655 8.3473 11.6141 8.67626C11.4627 9.00522 11.3798 9.36154 11.3705 9.72355C11.3611 10.0856 11.4255 10.4457 11.5597 10.782C11.6939 11.1184 11.8951 11.4239 12.1511 11.68L12.1311 11.63C11.7481 11.2392 11.2486 10.9831 10.7077 10.9002C10.1668 10.8173 9.61364 10.9119 9.13111 11.17C8.79687 11.3605 8.5111 11.6255 8.29602 11.9444C8.08095 12.2633 7.94238 12.6276 7.89109 13.0089C7.83981 13.3901 7.87719 13.778 8.00034 14.1425C8.12349 14.5069 8.32908 14.838 8.60111 15.11L11.6011 18.11C11.3849 17.8941 11.1259 17.7259 10.8408 17.6161C10.5557 17.5063 10.2508 17.4573 9.94567 17.4724C9.64052 17.4875 9.3419 17.5662 9.06901 17.7036C8.79611 17.8409 8.55498 18.0339 8.3611 18.27C8.02992 18.7139 7.87164 19.2632 7.9158 19.8152C7.95997 20.3673 8.20357 20.8844 8.60111 21.27L21.1311 33.91C22.0086 34.7917 23.0526 35.4902 24.2023 35.965C25.3521 36.4398 26.5847 36.6815 27.8287 36.6759C29.0726 36.6703 30.303 36.4176 31.4484 35.9325C32.5939 35.4474 33.6315 34.7395 34.5011 33.85C35.8729 32.4184 36.9358 30.72 37.6239 28.8605C38.312 27.0009 38.6106 25.0198 38.5011 23.04L38.1311 10.91C38.1109 10.6377 37.9882 10.3831 37.7878 10.1975C37.5874 10.012 37.3242 9.90926 37.0511 9.91001V9.91001C35.9014 9.90638 34.7948 10.3479 33.9634 11.142C33.132 11.9362 32.6402 13.0213 32.5911 14.17V14.17Z" fill="#FEB2AB"/>
<path d="M32.4612 17.43L21.2412 6.20001C20.8037 5.73722 20.2111 5.45182 19.5765 5.39832C18.9419 5.34482 18.3099 5.52699 17.8012 5.91001C17.5483 6.11546 17.3383 6.36873 17.1834 6.65535C17.0284 6.94196 16.9314 7.25631 16.898 7.58042C16.8645 7.90453 16.8953 8.23205 16.9885 8.54426C17.0817 8.85648 17.2355 9.14727 17.4412 9.40001C17.5427 9.26002 17.664 9.13541 17.8012 9.03001C18.3075 8.6445 18.9382 8.45893 19.5727 8.50873C20.2072 8.55853 20.8011 8.84021 21.2412 9.30001L30.9012 18.97L32.4612 17.43Z" fill="white" fill-opacity="0.25"/>
<path d="M38.2211 14.0299L38.1311 10.9099C38.1108 10.6376 37.9882 10.383 37.7878 10.1975C37.5874 10.0119 37.3242 9.90917 37.0511 9.90992C35.8981 9.90917 34.7898 10.356 33.9597 11.1562C33.1296 11.9565 32.6425 13.0477 32.6011 14.1999L32.4711 17.4599L32.6011 17.3199C32.645 16.1685 33.1328 15.0787 33.9624 14.279C34.7919 13.4793 35.8988 13.0317 37.0511 13.0299C37.334 13.0269 37.6085 13.1266 37.8237 13.3104C38.0388 13.4943 38.18 13.7499 38.2211 14.0299Z" fill="white" fill-opacity="0.25"/>
<path d="M32.5911 14.17L32.4611 17.43L21.2411 6.20001C20.8037 5.73722 20.211 5.45182 19.5765 5.39832C18.9419 5.34482 18.3099 5.52699 17.8011 5.91001C17.5295 6.12989 17.3072 6.40447 17.1487 6.71591C16.9902 7.02734 16.899 7.36865 16.8811 7.71765C16.8632 8.06664 16.9189 8.4155 17.0447 8.74153C17.1705 9.06756 17.3634 9.36347 17.6111 9.61001L16.0211 8.02001C15.5358 7.51472 14.877 7.21211 14.1774 7.17314C13.4779 7.13418 12.7896 7.36174 12.2511 7.81001C11.9822 8.05258 11.7655 8.3473 11.6141 8.67626C11.4627 9.00522 11.3798 9.36154 11.3705 9.72355C11.3611 10.0856 11.4255 10.4457 11.5597 10.782C11.6939 11.1184 11.8951 11.4239 12.1511 11.68L12.1311 11.63C11.7481 11.2392 11.2486 10.9831 10.7077 10.9002C10.1668 10.8173 9.61364 10.9119 9.13111 11.17C8.79687 11.3605 8.5111 11.6255 8.29602 11.9444C8.08095 12.2633 7.94238 12.6276 7.89109 13.0089C7.83981 13.3901 7.87719 13.778 8.00034 14.1425C8.12349 14.5069 8.32908 14.838 8.60111 15.11L11.6011 18.11C11.3849 17.8941 11.1259 17.7259 10.8408 17.6161C10.5557 17.5063 10.2508 17.4573 9.94567 17.4724C9.64052 17.4875 9.3419 17.5662 9.06901 17.7036C8.79611 17.8409 8.55498 18.0339 8.3611 18.27C8.02992 18.7139 7.87164 19.2632 7.9158 19.8152C7.95997 20.3673 8.20357 20.8844 8.60111 21.27L21.1311 33.91C22.0086 34.7917 23.0526 35.4902 24.2023 35.965C25.3521 36.4398 26.5847 36.6815 27.8287 36.6759C29.0726 36.6703 30.303 36.4176 31.4484 35.9325C32.5939 35.4474 33.6315 34.7395 34.5011 33.85C35.8729 32.4184 36.9358 30.72 37.6239 28.8605C38.312 27.0009 38.6106 25.0198 38.5011 23.04L38.1311 10.91C38.1109 10.6377 37.9882 10.3831 37.7878 10.1975C37.5874 10.012 37.3242 9.90926 37.0511 9.91001C35.9014 9.90638 34.7948 10.3479 33.9634 11.142C33.132 11.9362 32.6402 13.0213 32.5911 14.17Z" stroke="black" stroke-width="1.75" stroke-linecap="round" stroke-linejoin="round"/>
<path d="M11.4711 18.0898L17.5311 24.1398" stroke="black" stroke-width="1.75" stroke-linecap="round" stroke-linejoin="round"/>
<path d="M12.1511 11.6899L21.0611 20.5999" stroke="black" stroke-width="1.75" stroke-linecap="round" stroke-linejoin="round"/>
<path d="M17.6111 9.62988L24.8211 16.8499" stroke="black" stroke-width="1.75" stroke-linecap="round" stroke-linejoin="round"/>
<path d="M32.4611 17.4299L28.8911 20.9999C28.3332 21.5572 27.8907 22.2189 27.5887 22.9473C27.2868 23.6757 27.1313 24.4564 27.1313 25.2449C27.1313 26.0334 27.2868 26.8142 27.5887 27.5426C27.8907 28.271 28.3332 28.9327 28.8911 29.4899V29.4899" stroke="black" stroke-width="1.75" stroke-linecap="round" stroke-linejoin="round"/>
<path d="M23.2411 3.66992C24.8301 3.94129 26.3179 4.6317 27.5511 5.66992C28.773 6.75508 29.7017 8.13081 30.2511 9.66992" stroke="black" stroke-width="1.75" stroke-linecap="round" stroke-linejoin="round"/>
<path d="M23.8112 1C25.7694 1.31505 27.6069 2.1509 29.1312 3.42C30.6427 4.75313 31.7888 6.45003 32.4612 8.35" stroke="black" stroke-width="1.75" stroke-linecap="round" stroke-linejoin="round"/>
<path d="M3.7811 19.1499C3.62276 20.7492 3.89554 22.3617 4.5711 23.8199C5.30375 25.2785 6.39443 26.5275 7.7411 27.4499" stroke="black" stroke-width="1.75" stroke-linecap="round" stroke-linejoin="round"/>
<path d="M1.05106 19.01C0.860407 20.9882 1.20583 22.9813 2.05106 24.78C2.95652 26.5814 4.30124 28.1256 5.96106 29.27" stroke="black" stroke-width="1.75" stroke-linecap="round" stroke-linejoin="round"/>
</g>
<defs>
<clipPath id="clip0_49_2">
<rect width="40" height="38" fill="white"/>
</clipPath>
</defs>
</svg>
