<svg width="675" height="675" viewBox="0 0 675 675" fill="none" xmlns="http://www.w3.org/2000/svg">
<rect width="675" height="675" fill="white"/>
<path d="M381.556 172L390.479 170.824C389.888 166.347 386.072 163 381.556 163C309.973 163 272.646 214.223 253.741 265.319L218.248 357.223C217.777 348.719 217.265 339.673 216.757 330.779C215.86 315.066 214.963 299.651 214.29 288.165C213.954 282.421 213.673 277.66 213.477 274.334C213.379 272.671 213.302 271.367 213.249 270.479L213.189 269.465L213.174 269.205L213.17 269.139L213.169 269.123L213.169 269.118C213.169 269.117 213.168 269.117 204.184 269.65L213.168 269.117C213.162 269.015 213.155 268.913 213.145 268.811C210.49 240.444 197.53 214.036 176.72 194.588C155.91 175.14 128.693 164.004 100.226 163.29C97.5461 163.223 94.976 164.353 93.215 166.374C91.4539 168.395 90.6853 171.095 91.1181 173.741L145.076 503.454C145.788 507.805 149.548 511 153.958 511C228.161 511 267.894 460.114 287.774 408.747L287.782 408.728L318.088 329.876C320.77 349.569 324.32 375.213 327.868 400.708C331.457 426.489 335.045 452.125 337.736 471.316C339.081 480.912 340.202 488.896 340.987 494.481C341.38 497.274 341.688 499.467 341.898 500.962L342.138 502.669L342.2 503.106L342.216 503.217L342.219 503.245L342.22 503.252C342.221 503.254 342.221 503.254 351.133 502L342.221 503.254C342.847 507.701 346.654 511.006 351.145 511C381.225 510.961 410.51 501.338 434.757 483.527C458.9 465.792 476.797 440.856 485.883 412.309L583.323 175.424C584.465 172.647 584.148 169.485 582.477 166.991C580.806 164.497 578.002 163 575 163C500.71 163 462.14 213.999 443.145 265.38C442.834 266.221 442.654 267.091 442.602 267.963L414.449 356.755C411.786 335.214 408.308 307.931 404.833 280.957C401.244 253.109 397.656 225.576 394.964 205.006C393.619 194.72 392.497 186.175 391.712 180.201C391.32 177.215 391.012 174.87 390.801 173.273L390.561 171.449L390.5 170.982L390.484 170.864L390.48 170.834L390.479 170.826C390.479 170.825 390.479 170.824 381.556 172Z" fill="#4154FF" stroke="#4154FF" stroke-width="18" stroke-linejoin="round"/>
</svg>
