<svg width="675" height="675" viewBox="0 0 675 675" fill="none" xmlns="http://www.w3.org/2000/svg">
<rect width="675" height="675" fill="white"/>
<path d="M245.323 262.135L224.871 315.092C224.283 304.897 223.728 295.376 223.275 287.638C222.938 281.894 222.658 277.131 222.461 273.804C222.421 273.124 222.385 272.504 222.352 271.948C222.304 271.143 222.265 270.472 222.233 269.947L222.173 268.932L222.158 268.672L222.154 268.606L222.153 268.589L222.153 268.585C222.153 268.584 222.153 268.584 204.184 269.65L222.153 268.584C222.141 268.38 222.125 268.176 222.106 267.972C219.245 237.414 205.285 208.964 182.865 188.013C160.445 167.061 131.123 155.062 100.451 154.293C95.0921 154.158 89.952 156.42 86.4299 160.461C82.9079 164.503 81.3705 169.904 82.2363 175.194L136.194 504.907C137.618 513.61 145.139 520 153.958 520C233.482 520 275.637 465.042 296.167 411.995L296.182 411.956L313.935 365.769C315.544 377.414 317.249 389.699 318.954 401.949C322.543 427.734 326.132 453.373 328.823 472.566C330.168 482.162 331.29 490.147 332.075 495.734C332.467 498.527 332.776 500.72 332.986 502.216L333.226 503.923L333.288 504.361L333.303 504.471L333.307 504.499L333.308 504.506C333.309 504.508 333.309 504.509 351.133 502L333.309 504.509C334.56 513.402 342.175 520.012 351.156 520C383.15 519.959 414.297 509.724 440.085 490.78C465.661 471.992 484.647 445.606 494.345 415.396L591.647 178.847C593.931 173.295 593.296 166.969 589.954 161.981C586.612 156.993 581.004 154 575 154C495.303 154 454.325 209.183 434.703 262.26C434.236 263.522 433.917 264.819 433.743 266.125L418.262 314.951C416.806 303.514 415.282 291.63 413.759 279.807C410.169 251.951 406.58 224.411 403.888 203.838C402.542 193.551 401.421 185.004 400.636 179.029C400.243 176.041 399.935 173.696 399.724 172.098L399.484 170.274L399.422 169.806L399.407 169.687L399.403 169.657L399.402 169.65C399.402 169.648 399.401 169.647 381.556 172L399.401 169.647C398.221 160.693 390.588 154 381.556 154C304.405 154 264.765 209.626 245.323 262.135Z" stroke="black" stroke-width="36" stroke-linejoin="round"/>
</svg>
