<svg width="675" height="675" viewBox="0 0 675 675" fill="none" xmlns="http://www.w3.org/2000/svg">
<rect width="675" height="675" fill="white"/>
<path d="M151.38 337.5C151.38 411.255 194.28 474.78 256.32 504.975L167.55 261.765C156.891 285.591 151.38 311.398 151.38 337.5ZM337.5 523.62C359.115 523.62 379.905 519.825 399.375 513.06L398.055 510.585L340.8 353.835L285.03 516.03C301.53 520.98 319.185 523.62 337.5 523.62ZM363.075 250.215L430.395 450.36L449.04 388.32C456.96 362.58 463.065 344.1 463.065 328.095C463.065 304.995 454.815 289.155 447.885 276.945C438.315 261.435 429.57 248.4 429.57 233.22C429.57 216.06 442.44 200.22 460.92 200.22H463.23C428.935 168.737 384.054 151.302 337.5 151.38C306.675 151.374 276.332 159.031 249.201 173.663C222.069 188.294 199.001 209.441 182.07 235.2L193.95 235.53C213.42 235.53 243.45 233.055 243.45 233.055C253.68 232.56 254.835 247.245 244.77 248.4C244.77 248.4 234.705 249.72 223.32 250.215L291.3 451.845L332.055 329.745L303.015 250.215C296.51 249.856 290.017 249.306 283.545 248.565C273.48 247.905 274.635 232.56 284.7 233.055C284.7 233.055 315.39 235.53 333.705 235.53C353.175 235.53 383.205 233.055 383.205 233.055C393.27 232.56 394.59 247.245 384.525 248.4C384.525 248.4 374.46 249.555 363.075 250.215ZM431.055 498.375C459.211 482.003 482.578 458.53 498.822 430.299C515.065 402.069 523.616 370.07 523.62 337.5C523.62 305.16 515.37 274.8 500.85 248.235C503.799 277.461 499.374 306.96 487.98 334.035L431.055 498.375ZM337.5 552C280.611 552 226.052 529.401 185.826 489.174C145.599 448.948 123 394.389 123 337.5C123 280.611 145.599 226.052 185.826 185.826C226.052 145.599 280.611 123 337.5 123C394.389 123 448.948 145.599 489.174 185.826C529.401 226.052 552 280.611 552 337.5C552 394.389 529.401 448.948 489.174 489.174C448.948 529.401 394.389 552 337.5 552Z" fill="#0775C4"/>
<path fill-rule="evenodd" clip-rule="evenodd" d="M133.938 269.877C126.758 291.488 123 314.3 123 337.5C123 337.5 123 337.5 123 337.5C123 394.389 145.599 448.948 185.826 489.174C202.468 505.817 221.563 519.442 242.262 529.698C242.806 529.967 243.351 530.235 243.897 530.5C254.511 535.647 265.538 539.913 276.864 543.251C279.515 544.033 282.183 544.764 284.866 545.443C288.912 546.467 292.993 547.374 297.103 548.163C301.773 549.058 306.48 549.8 311.217 550.384C319.892 551.455 328.668 552 337.5 552C350.352 552 363.085 550.847 375.56 548.597C386.845 546.563 397.92 543.631 408.682 539.845C412.809 538.393 416.891 536.815 420.921 535.114C429.299 531.577 437.453 527.508 445.331 522.927C445.358 522.911 445.385 522.895 445.412 522.879C445.728 522.696 446.043 522.511 446.358 522.326C452.721 518.578 458.902 514.495 464.872 510.089C464.973 510.015 465.073 509.941 465.173 509.867C473.623 503.608 481.649 496.7 489.174 489.174C502.626 475.722 514.107 460.668 523.431 444.459C541.988 412.199 551.999 375.367 552 337.503C552 337.502 552 337.501 552 337.5C552 310.882 547.053 284.775 537.667 260.406C535.681 255.25 533.496 250.171 531.117 245.181C529.677 242.161 528.165 239.173 526.584 236.22C526.301 235.691 526.015 235.164 525.728 234.637C525.48 234.184 525.231 233.731 524.979 233.28C515.389 216.026 503.381 200.032 489.174 185.826C486.959 183.61 484.699 181.448 482.399 179.34C442.932 143.179 391.259 123.001 337.505 123C337.504 123 337.502 123 337.5 123C337.484 123 337.468 123 337.453 123C301.619 123.008 266.711 131.982 235.728 148.68C217.538 158.484 200.702 170.949 185.826 185.826C183.932 187.719 182.078 189.644 180.263 191.6C172.139 200.355 164.807 209.721 158.315 219.587C151.908 229.325 146.318 239.549 141.591 250.151C138.718 256.595 136.164 263.178 133.938 269.877ZM151.884 323.84C151.549 328.378 151.38 332.935 151.38 337.5C151.38 388.098 171.57 433.882 204.28 467.392C204.827 467.954 205.379 468.512 205.934 469.066C219.301 482.421 234.686 493.758 251.584 502.586C253.15 503.404 254.729 504.2 256.32 504.975L167.55 261.765C166.23 264.716 164.988 267.698 163.826 270.707C157.25 287.74 153.228 305.645 151.884 323.84ZM285.03 516.03C289.943 517.504 294.959 518.773 300.065 519.829C302.088 520.247 304.125 520.632 306.175 520.983C310.963 521.802 315.823 522.435 320.745 522.875C326.257 523.369 331.847 523.62 337.5 523.62C346.42 523.62 355.199 522.974 363.803 521.739C366.04 521.418 368.265 521.058 370.477 520.658C375.516 519.748 380.491 518.638 385.393 517.338C385.759 517.241 386.125 517.143 386.49 517.044C390.844 515.862 395.141 514.531 399.375 513.06L398.055 510.585L340.8 353.835L285.03 516.03ZM332.891 487.551L341.825 461.569L351.112 486.996C346.618 487.408 342.079 487.62 337.5 487.62C335.956 487.62 334.42 487.597 332.891 487.551ZM332.055 329.745L303.015 250.215C297.762 249.925 292.517 249.51 287.284 248.971C286.167 248.856 285.051 248.736 283.935 248.609C283.805 248.595 283.675 248.58 283.545 248.565C283.513 248.563 283.481 248.561 283.45 248.558C273.533 247.812 274.656 232.701 284.562 233.049C284.608 233.051 284.654 233.053 284.7 233.055C284.7 233.055 284.913 233.072 285.315 233.104C285.715 233.135 286.304 233.181 287.055 233.238C290.298 233.485 296.574 233.945 303.888 234.388C306.439 234.542 309.116 234.695 311.834 234.836C314.559 234.977 317.325 235.106 320.048 235.214C324.898 235.406 329.611 235.53 333.705 235.53C334.447 235.53 335.204 235.526 335.974 235.52C342.223 235.463 349.333 235.189 356.105 234.842C358.167 234.736 360.199 234.624 362.165 234.509C372.354 233.914 380.793 233.249 382.768 233.09C383.055 233.067 383.205 233.055 383.205 233.055C388.489 232.795 391.363 236.719 391.444 240.673C391.518 244.25 389.306 247.851 384.525 248.4C384.525 248.4 384.507 248.402 384.47 248.406C384.388 248.416 384.217 248.435 383.963 248.463C381.695 248.712 372.874 249.647 363.075 250.215L430.395 450.36L449.04 388.32C449.627 386.411 450.205 384.542 450.77 382.711C457.832 359.853 463.065 342.913 463.065 328.095C463.065 327.183 463.052 326.282 463.027 325.392C463.009 324.757 462.985 324.127 462.955 323.504C462.627 316.749 461.592 310.647 460.12 305.095C457.096 293.687 452.231 284.602 447.885 276.945C447.255 275.925 446.629 274.915 446.009 273.914C437.202 259.71 429.57 247.401 429.57 233.22C429.57 228.892 430.389 224.648 431.909 220.721C435.496 211.461 442.987 203.962 452.855 201.281C455.395 200.591 458.092 200.22 460.92 200.22H463.23C462.465 199.518 461.695 198.823 460.92 198.135C450.254 188.668 438.61 180.53 426.246 173.823C399.211 159.157 368.732 151.328 337.5 151.38C306.675 151.374 276.332 159.031 249.201 173.663C236.209 180.669 224.15 189.168 213.25 198.952C210.741 201.204 208.293 203.525 205.91 205.91C202.881 208.942 199.955 212.081 197.139 215.319C196.222 216.374 195.316 217.44 194.423 218.516C194.265 218.706 194.107 218.896 193.95 219.087C193.101 220.118 192.262 221.158 191.435 222.207C188.135 226.393 185.01 230.727 182.07 235.2L193.95 235.53C194.716 235.53 195.498 235.526 196.293 235.519C202.538 235.461 209.637 235.186 216.397 234.84C218.523 234.731 220.615 234.615 222.637 234.496C224.743 234.372 226.772 234.246 228.683 234.122C234.184 233.765 238.702 233.427 241.236 233.231C241.879 233.181 242.394 233.14 242.765 233.11C242.765 233.11 242.765 233.11 242.765 233.11C242.856 233.103 242.939 233.096 243.013 233.09C243.3 233.067 243.45 233.055 243.45 233.055C248.802 232.796 251.67 236.691 251.747 240.631C251.818 244.222 249.57 247.849 244.77 248.4C244.77 248.4 244.752 248.402 244.715 248.407C244.632 248.418 244.456 248.44 244.196 248.473C243.608 248.545 242.589 248.668 241.234 248.817C237.317 249.247 230.587 249.899 223.32 250.215L291.3 451.845L332.055 329.745ZM293.925 330.278L291.129 338.655L272.371 283.02C273.902 283.436 275.458 283.771 277.035 284.022L293.925 330.278ZM284.503 197.044C285.156 197.048 285.812 197.066 286.468 197.098L287.032 197.126L287.592 197.171L287.594 197.172L287.887 197.195C288.097 197.211 288.415 197.236 288.831 197.269C289.663 197.333 290.886 197.426 292.415 197.538C295.478 197.763 299.749 198.063 304.566 198.362C314.439 198.975 325.742 199.53 333.705 199.53C342.269 199.53 353.724 198.972 363.52 198.362C368.315 198.064 372.529 197.765 375.538 197.541C377.041 197.429 378.238 197.336 379.05 197.273C379.456 197.241 379.765 197.216 379.968 197.199L380.248 197.177L380.25 197.177L380.842 197.128L381.437 197.098C385.479 196.9 389.5 197.237 393.394 198.1C375.791 191.048 356.854 187.348 337.56 187.38L337.527 187.38L337.493 187.38C319.336 187.377 301.387 190.67 284.503 197.044ZM415.431 292.949L427.062 327.531C426.943 314.524 422.711 305.576 416.908 295.3C416.445 294.556 415.951 293.771 415.431 292.949ZM241.34 222.242L242.217 228.931ZM431.055 498.375C431.293 498.236 431.531 498.097 431.769 497.958C431.858 497.905 431.947 497.853 432.036 497.8C441.896 491.987 451.16 485.298 459.728 477.838C462.951 475.031 466.075 472.115 469.095 469.095C475.181 463.011 480.844 456.504 486.041 449.621C490.684 443.471 494.955 437.02 498.822 430.299C514.31 403.381 522.804 373.037 523.564 342.038C523.601 340.527 523.62 339.014 523.62 337.5C523.62 305.16 515.37 274.8 500.85 248.235C501.5 254.675 501.791 261.128 501.73 267.565C501.605 280.474 500.059 293.32 497.126 305.87C495.365 313.402 493.105 320.827 490.353 328.095C489.599 330.087 488.808 332.067 487.98 334.035L431.055 498.375ZM337.5 588C271.063 588 207.348 561.608 160.37 514.63C113.392 467.652 87 403.937 87 337.5C87 271.063 113.392 207.348 160.37 160.37C207.348 113.392 271.063 87 337.5 87C403.937 87 467.652 113.392 514.63 160.37C561.608 207.348 588 271.063 588 337.5C588 403.937 561.608 467.652 514.63 514.63C467.652 561.608 403.937 588 337.5 588Z" fill="black"/>
</svg>
