<svg width="675" height="675" viewBox="0 0 675 675" fill="none" xmlns="http://www.w3.org/2000/svg">
<rect width="675" height="675" fill="white"/>
<path d="M407.825 538.095L407.837 538.128L407.853 538.159L409.11 540.516C386.718 548.232 362.828 552.555 338 552.555C316.972 552.555 296.697 549.551 277.733 543.915L341.845 357.459L407.825 538.095ZM445.809 466.364L368.371 236.137C374.743 235.757 380.716 235.25 385.141 234.833C387.43 234.618 389.305 234.426 390.609 234.288C391.261 234.219 391.77 234.164 392.116 234.125C392.289 234.106 392.421 234.091 392.51 234.081L392.611 234.07L392.637 234.067L392.643 234.066L392.645 234.066L392.645 234.066C392.645 234.066 392.645 234.066 392.588 233.569L392.645 234.066C395.696 233.716 397.919 232.332 399.323 230.437C400.721 228.55 401.284 226.187 401.083 223.901C400.882 221.614 399.914 219.378 398.214 217.748C396.506 216.11 394.084 215.107 391.032 215.257L391.023 215.257L391.015 215.258L391.019 215.308C391.015 215.258 391.015 215.258 391.015 215.258L391.014 215.258L391.009 215.258L390.99 215.26L390.915 215.266L390.619 215.29C390.358 215.311 389.973 215.342 389.475 215.381C388.478 215.46 387.029 215.572 385.219 215.706C381.599 215.976 376.538 216.335 370.77 216.694C359.232 217.412 344.879 218.129 333.595 218.129C322.981 218.129 308.772 217.412 297.209 216.694C291.43 216.335 286.314 215.976 282.643 215.706C280.808 215.572 279.334 215.46 278.319 215.381C277.811 215.342 277.418 215.311 277.152 215.29L276.85 215.266L276.774 215.26L276.754 215.258L276.749 215.258L276.748 215.258C276.748 215.258 276.748 215.258 276.708 215.756L276.748 215.258L276.74 215.257L276.732 215.257C273.673 215.106 271.259 216.163 269.571 217.867C267.891 219.563 266.951 221.876 266.776 224.218C266.6 226.56 267.187 228.966 268.605 230.845C270.03 232.732 272.269 234.056 275.322 234.259C282.732 235.107 290.165 235.74 297.612 236.157L331.15 328.005L284.367 468.164L206.141 236.146C212.513 235.853 218.485 235.345 222.911 234.905C225.201 234.677 227.077 234.467 228.382 234.314C229.034 234.238 229.543 234.176 229.889 234.132C230.063 234.111 230.195 234.094 230.284 234.083L230.386 234.07L230.412 234.066L230.412 234.066C230.414 234.066 230.415 234.066 230.417 234.065C242.755 232.645 241.298 214.652 228.799 215.257L228.79 215.257L228.782 215.258L228.823 215.756C228.782 215.258 228.782 215.258 228.782 215.258L228.78 215.258L228.776 215.258L228.757 215.26L228.682 215.266L228.386 215.29C228.125 215.311 227.74 215.342 227.242 215.381C226.245 215.46 224.796 215.572 222.986 215.706C219.366 215.976 214.304 216.335 208.537 216.694C197.001 217.412 182.652 218.129 171.368 218.129C171.366 218.129 171.364 218.129 171.362 218.129L158.483 217.771C178.045 188.277 204.577 164.055 235.736 147.251C267.158 130.306 302.3 121.438 338 121.445H338.001C391.488 121.356 443.068 141.226 482.663 177.14H481.271C459.497 177.14 444.378 195.799 444.378 215.948C444.378 232.559 453.314 246.968 463.514 263.415C464.24 264.586 464.973 265.767 465.709 266.96C473.74 281.111 483.261 299.404 483.261 326.082C483.261 343.204 477.209 362.794 469.001 389.368C468.348 391.483 467.681 393.642 467.002 395.847L467.001 395.85L445.809 466.364ZM140.67 250.418L242.867 530.415C171.615 495.228 122.445 421.976 122.445 337C122.445 307.183 128.654 277.697 140.67 250.418ZM524.835 444.476C506.248 476.78 479.606 503.706 447.518 522.634L513.15 333.156C526.085 302.413 531.299 268.984 528.354 235.786C544.443 266.032 553.555 300.422 553.555 337C553.551 374.721 543.648 411.78 524.835 444.476ZM161.577 513.423C208.367 560.214 271.828 586.5 338 586.5C404.172 586.5 467.633 560.214 514.423 513.423C561.214 466.633 587.5 403.172 587.5 337C587.5 270.828 561.214 207.367 514.423 160.577C467.633 113.787 404.172 87.5 338 87.5C271.828 87.5 208.367 113.787 161.577 160.577C114.787 207.367 88.5 270.828 88.5 337C88.5 403.172 114.787 466.633 161.577 513.423Z" fill="#0775C4" stroke="black"/>
</svg>
