<svg width="675" height="675" viewBox="0 0 675 675" fill="none" xmlns="http://www.w3.org/2000/svg">
<rect width="675" height="675" fill="white"/>
<path d="M121.945 337C121.945 422.618 171.745 496.36 243.763 531.412L140.715 249.084C128.342 276.742 121.945 306.7 121.945 337ZM338 553.055C363.092 553.055 387.225 548.65 409.827 540.797L408.295 537.924L341.831 355.962L277.091 544.245C296.245 549.991 316.739 553.055 338 553.055ZM367.688 235.676L445.836 468.012L467.48 395.994C476.674 366.114 483.761 344.662 483.761 326.082C483.761 299.267 474.184 280.879 466.139 266.705C455.03 248.701 444.878 233.569 444.878 215.948C444.878 196.028 459.818 177.64 481.271 177.64H483.952C444.142 141.093 392.042 120.855 338 120.945C302.217 120.938 266.994 129.827 235.498 146.811C204.003 163.796 177.224 188.344 157.571 218.246L171.362 218.629C193.963 218.629 228.823 215.756 228.823 215.756C240.698 215.182 242.039 232.228 230.355 233.569C230.355 233.569 218.672 235.102 205.455 235.676L284.369 469.736L331.679 327.998L297.968 235.676C290.417 235.259 282.88 234.621 275.367 233.761C263.683 232.995 265.024 215.182 276.708 215.756C276.708 215.756 312.334 218.629 333.595 218.629C356.196 218.629 391.056 215.756 391.056 215.756C402.74 215.182 404.272 232.228 392.588 233.569C392.588 233.569 380.905 234.91 367.688 235.676ZM446.602 523.75C479.287 504.745 506.413 477.496 525.269 444.725C544.125 411.954 554.051 374.809 554.055 337C554.055 299.458 544.478 264.215 527.623 233.378C531.046 267.305 525.909 301.548 512.683 332.978L446.602 523.75ZM338 586C271.961 586 208.627 559.766 161.93 513.07C115.234 466.373 89 403.039 89 337C89 270.961 115.234 207.627 161.93 160.93C208.627 114.234 271.961 88 338 88C404.039 88 467.373 114.234 514.07 160.93C560.766 207.627 587 270.961 587 337C587 403.039 560.766 466.373 514.07 513.07C467.373 559.766 404.039 586 338 586Z" fill="black"/>
</svg>
